<?xml version="1.0" encoding="utf-8" ?><svg xmlns="http://www.w3.org/2000/svg" xmlns:xlink="http://www.w3.org/1999/xlink" width="1250" height="300" viewBox="0 0 1250 300"><path fill="white" d="M31.3431 126.965C32.5937 126.894 33.8455 126.847 35.0979 126.821C50.9923 126.614 66.9676 126.718 82.9273 126.718C91.7275 126.718 104.855 125.505 112.85 129.002C121.665 132.858 122.652 146.289 121.535 155.018C119.692 169.427 126.014 190.209 116.481 201.826C110.618 208.11 99.2057 206.97 91.2397 206.61C66.2756 205.479 70.6455 229.472 70.7594 246.799C70.722 255.254 72.1933 268.279 68.2751 275.432C66.3892 278.91 63.1624 281.467 59.3432 282.509C52.0586 284.542 31.6337 284.702 24.7069 280.683C21.1426 278.618 18.5613 275.206 17.5462 271.217C16.5934 267.555 16.7781 250.448 16.7741 245.546L16.9301 192.088C16.9978 176.496 16.6025 160.936 16.959 145.349C17.1835 135.531 21.5356 129.438 31.3431 126.965Z"/><path fill="white" d="M421.886 167.174C444.1 167.161 489.048 164.429 507.828 172.472C516.902 176.358 524.414 183.056 528.072 192.348C531.595 201.3 531.482 213.915 527.595 222.73C523.032 233.08 514.657 238.932 504.399 242.901C508.704 249.325 536.111 283.489 533.75 288.228C529.713 290.268 519.751 289.551 514.832 289.474C511.165 289.516 506.595 290.001 503.05 289.181C497.25 287.839 476.666 254.775 472.308 247.783C465.49 247.603 458.668 247.651 451.854 247.926C451.605 254.717 452.874 283.506 450.746 287.536C449.638 288.495 447.794 289.494 446.413 289.361C439.836 288.73 424.644 291.379 419.756 287.348C419.238 286.478 419.058 285.391 419.045 284.381C418.554 246.59 418.566 208.682 419.005 170.892C419.023 169.315 420.725 168.04 421.886 167.174ZM452.214 224.966C464.909 225.26 482.622 227.318 492.902 220.276C501.282 211.685 499.627 196.832 487.767 193.082C477.868 189.953 462.723 191.248 451.907 191.385C451.857 198.504 451.329 218.89 452.214 224.966Z"/><path fill="white" d="M420.597 24.4225C426.6 24.0492 438.455 24.1247 444.683 24.259C462.131 24.7087 479.495 21.9344 495.617 30.0992C510.084 37.426 515.04 56.5793 507.23 70.4076C503.862 76.3767 498.272 80.7763 491.674 82.6495C492.195 82.8259 492.711 83.0123 493.225 83.2084C512.93 90.7015 520.428 106.296 512.827 125.873C506.31 138.678 490.315 146.523 476.816 146.098C466.961 145.788 427.013 148.27 420.284 145.264C418.61 142.381 419.195 105.917 419.194 98.9888L419.202 53.5791C419.201 48.1971 418.434 27.8708 420.597 24.4225ZM447.456 125.35C458.152 125.55 474.456 127.256 483.095 120.908C490.925 111.821 488.7 98.9333 476.536 95.5295C468.536 93.2909 456.087 94.2477 447.415 94.349C447.423 104.485 447.235 115.272 447.456 125.35ZM447.446 74.4358C457.405 74.6249 471.838 76.4877 479.395 70.2371C482.618 65.826 483.754 62.2163 482.926 56.7335C480.664 41.743 458.511 44.7869 447.439 45.1159C447.411 54.7447 447.23 64.8454 447.446 74.4358Z"/><path fill="white" d="M100.149 10.6798C100.971 10.638 101.795 10.6179 102.619 10.6193C121.455 10.6014 122.794 22.1798 122.808 37.1356L122.784 75.7134C122.77 87.1805 125.669 107.559 109.749 110.799C102.382 112.298 91.2129 111.618 83.4056 111.611L38.3022 111.549C20.9874 111.646 17.0956 103.744 16.9911 88.2389L16.9194 47.2929C16.9081 37.9318 14.9904 22.9126 21.6764 16.249C29.4453 8.5062 46.9593 10.7187 57.5371 10.7393L100.149 10.6798Z"/><path fill="white" d="M154.859 11.1891C168.02 10.517 181.423 10.9871 194.609 10.9669C204.389 10.9519 214.739 10.2711 224.462 11.1419C227.327 11.3985 230.462 11.996 233.041 13.3104C236.411 15.0283 239.213 19.2704 240.3 22.7947C242.092 28.6082 241.671 86.9071 240.901 95.8924C240.72 98.0048 240.333 100.012 239.314 101.893C236.519 107.045 232.072 109.835 226.555 111.439C215.856 112.298 204.504 111.563 193.744 111.577C182.446 111.592 170.476 112.415 159.246 111.371C156.04 111.073 152.724 110.425 149.813 109.019C146.364 107.353 143.547 103.314 142.344 99.762C140.676 94.8361 140.863 37.3939 141.49 27.9127C141.649 25.5098 141.866 22.9564 142.949 20.7711C145.525 15.5708 149.46 12.9701 154.859 11.1891Z"/><path fill="white" d="M564.237 167.202L603.087 167.124C613.534 167.116 623.761 166.675 634.087 168.354C653.303 171.478 668.283 181.38 670.533 201.864C673.603 229.803 654.732 246.732 628.204 249.422C617.189 249.989 605.07 249.824 593.965 249.875C594.027 261.004 594.252 272.16 593.914 283.293C593.717 289.783 589.663 290.121 584.117 289.496C581.561 289.037 562.681 291.013 562.165 287.416C560.037 272.574 561.062 221.23 561.05 208.989L561.03 183.814C561.032 179.609 560.889 174.905 561.301 170.719C561.459 169.111 562.957 168.122 564.237 167.202ZM594.269 225.718C606.13 225.932 625.158 228.163 633.982 220.338C638.205 215.664 639.059 212.634 638.745 206.32C637.788 187.059 607.154 191.22 594.096 191.479C593.933 200.953 593.468 216.519 594.269 225.718Z"/><path fill="white" d="M700.186 167.206C718.895 167.17 739.188 167.805 757.733 167.321C820.604 165.679 823.869 245.913 760.649 249.731C751.028 250.303 739.22 249.902 729.271 250.039C729.187 256.563 730.185 283.061 728.497 287.164C727.226 288.589 725.391 289.578 723.557 289.436C717.526 288.969 701.564 291.366 697.264 287.513C696.639 285.655 696.448 281.668 696.457 279.639C696.63 243.286 696.038 206.835 696.736 170.522C696.761 169.207 699.113 167.823 700.186 167.206ZM729.306 225.685C742.504 226.164 758.173 228.172 769.056 220.804C775.213 213.747 775.873 202.417 768.789 196.285C760.534 189.139 739.792 191.276 729.318 191.472L729.306 225.685Z"/><path fill="white" d="M873.282 165.486C873.765 165.433 874.249 165.395 874.734 165.372C890.226 164.685 911.597 168.026 924.83 177.81C926.413 178.981 927.236 180.913 927.326 182.919C926.123 187.481 916.964 197.529 913.335 200.941C901.451 195.757 894.414 188.459 879.794 189.2C872.859 189.551 862.037 190.799 862.015 200.223C861.995 209.057 875.722 211.843 882.155 214.003C903.668 220.237 930.99 226.104 929.636 254.525C929.181 264.063 927.259 269.89 920.452 277.006C909.327 288.638 893.481 290.612 878.147 290.968C863.228 290.978 849.254 288.41 836.044 281.308C831.767 279.009 824.831 276.249 824.872 270.664C826.352 266.094 835.643 255.985 839.465 252.788C841.5 253.495 847.635 256.95 849.712 258.513C859.665 266.005 886.036 272.2 895.266 261.317C904.934 249.917 883.815 243.238 875.445 241.056C857.699 236.326 832.345 229.096 830.182 207.026C827.413 178.768 849.84 168.286 873.282 165.486Z"/><path fill="white" d="M1096.76 63.5635C1109.54 62.567 1120.39 63.6762 1131.04 70.7215C1158.19 88.683 1153.71 133.482 1122.73 144.677C1118.9 146.064 1115.88 146.706 1111.93 147.477C1098.85 148.421 1087.58 147.796 1076.31 140.187C1067.52 134.226 1061.44 125.045 1059.38 114.634C1054.17 87.5192 1070.75 68.4644 1096.76 63.5635ZM1106.69 128.675C1131.72 122.115 1128.44 82.0578 1102.74 82.4872C1076.21 87.1031 1078.25 129.595 1106.69 128.675Z"/><path fill="white" d="M565.507 63.6212C566.873 63.2957 568.629 63.3577 570.049 63.308C580.191 62.9529 590.03 65.6886 597.566 72.7328C605.797 80.4274 609.561 91.8291 609.857 102.893C609.921 105.266 609.74 108.597 607.896 110.366C605.558 112.609 559.899 111.673 552.866 111.716C559.014 136.352 580.465 130.976 597.24 121.582L601.011 125.979C603.916 131.034 609.213 135.402 602.212 139.825C585.683 150.266 558.446 151.408 542.728 138.875C534.652 132.318 529.522 122.818 528.472 112.475C525.607 86.7887 539.141 66.4817 565.507 63.6212ZM553.117 96.788L571.594 96.7951L586.226 96.7473C584.729 85.8992 579.96 80.6325 568.538 80.7227C558.235 82.8937 555.511 86.6171 553.117 96.788Z"/><path fill="white" d="M761.327 63.6411L761.592 63.6138C785.658 61.1848 802.107 75.948 804.116 99.8025C805.439 115.518 795.75 111.681 782.84 111.64C771.193 111.504 759.545 111.536 747.899 111.737C752.24 129.389 763.965 132.106 780.122 127.189C783.068 126.293 789.584 122.333 792.192 122.559C794.103 123.453 795.44 125.808 796.688 127.605C798.718 130.608 800.063 132.922 801.815 136.081C778.016 158.27 725.455 149.879 723.195 111.802C721.589 84.7422 733.913 66.3431 761.327 63.6411ZM748.042 96.7727L765.686 96.8138L780.84 96.7993C779.519 86.8689 775.223 80.0743 764.035 80.6706C753.108 82.6292 750.29 86.1132 748.042 96.7727Z"/><path fill="white" d="M270.167 111.495C272.222 111.316 273.762 111.48 275.613 112.433C289.454 119.558 303.334 127.056 317.082 134.326L341.727 147.5C344.91 149.19 353.406 152.43 354.502 155.43C354.623 157.333 354.705 157.902 353.695 159.609C350.391 161.802 281.024 160.689 273.132 160.692C247.508 160.641 221.875 160.618 196.25 160.778C194.316 160.79 191.268 160.824 189.911 159.436C188.616 156.68 189.503 154.381 192.093 152.902C200.563 148.065 209.378 143.743 218.031 139.221C235.483 130.117 252.862 120.874 270.167 111.495Z"/><path fill="white" d="M668.164 64.0979C678.753 63.8094 689.452 62.2496 697.727 69.8862C704.225 75.6761 707.252 85.1847 707.381 93.823C707.621 109.905 707.485 126.286 707.268 142.391C707.249 143.796 706.43 144.646 705.571 145.601C702.819 146.774 688.158 146.78 684.48 145.984C683.189 145.762 682.54 143.854 682.319 142.691C679.117 125.886 693.595 68.3989 657.831 86.0157C657.134 86.5715 656.464 87.162 655.826 87.7848C653.661 89.9043 652.397 92.0114 651.574 94.9312C648.564 105.617 650.85 126.239 650.707 138.403C650.685 140.263 650.723 143.812 649.244 145.164C646.933 147.275 638.638 146.514 635.502 146.458C633.383 146.42 627.358 146.866 625.944 145.308C623.911 143.069 624.696 74.8072 625.234 65.3093C630.676 64.7897 636.346 65.0861 641.729 64.9223C651.505 64.6248 649.887 67.6764 650.064 76.066C655.257 69.1927 660.175 66.4447 668.164 64.0979Z"/><path fill="white" d="M852.452 23.277C875.525 22.3561 878.696 21.3462 874.277 44.7354C854.926 42.6238 853.519 46.3213 853.824 64.4972C860.259 65.0632 867.328 65.0741 873.83 65.2132C874.129 69.5561 875.07 78.9123 872.594 82.1555C869.492 84.5509 858.651 83.5406 853.75 83.5239L853.768 142.182C853.604 143.867 853.451 144.157 852.483 145.552C851.731 146.014 850.612 146.462 850.122 146.406C847.932 146.153 829.388 147.33 829.089 145.36C827.413 134.316 828.194 93.1352 828.031 83.6665C809.865 83.786 813.208 82.0092 813.977 65.2054C818.592 65.2669 823.373 64.9262 827.994 64.6664C828.302 43.8639 828.251 29.3684 852.452 23.277Z"/><path fill="white" d="M1189.6 63.5916C1195.84 62.6673 1222.19 64.2115 1226.21 72.3878C1227.38 74.7867 1220.26 84.5898 1218.17 87.4831C1209.86 83.9312 1198.96 77.6183 1189.59 82.4277C1187.7 83.3946 1185.99 84.9179 1185.38 87.0129C1186.31 93.7312 1205.11 96.9858 1211.43 99.2754C1229.4 105.79 1235.63 122.633 1222.71 138.026C1216.57 145.342 1205.43 147.352 1195.85 147.748C1181.17 148.121 1170.4 145.493 1158.39 137.041C1160.42 132.455 1165.62 125.084 1169.1 121.534C1178.8 126.187 1185.15 131.284 1196.82 129.659C1199.63 129.267 1207.2 125.668 1205.74 122.791C1201.63 116.054 1188.18 114.377 1180.69 112.004C1163.75 106.638 1156.84 91.8989 1166.37 76.0665C1171.01 68.3559 1180.74 65.1941 1189.6 63.5916Z"/><path fill="white" d="M967.026 63.6578C974.773 61.5902 999.576 66.4231 1002.1 75.1882C1002.24 78.7762 994.388 87.128 991.897 90.0629C945.692 61.3071 940.433 135.649 978.837 127.219C983.024 126.3 989.646 121.039 993.167 121.469C995.367 122.805 997.269 125.967 998.798 128.155C1000.54 130.449 1004.24 134.677 1001.02 137.387C975.448 158.89 930.558 147.064 927.848 110.554C925.954 85.0311 941.293 65.8897 967.026 63.6578Z"/><path fill="white" d="M103.111 226.404C110.388 225.912 133.935 225.31 140.744 227.716C143.724 228.897 148.558 235.202 148.711 238.216C149.494 253.539 155.562 278.191 136.371 283.492C105.019 283.809 87.3961 290.189 90.1596 251.535C90.9891 239.931 89.6527 231.215 103.111 226.404Z"/><path fill="white" d="M180.904 270.219L295.142 270.162C315.596 270.165 336.034 270.088 356.503 270.262C364.184 270.327 365.495 273.53 363.771 280.692C363.52 281.738 362.368 282.784 361.578 283.48C332.71 284.314 302.343 283.265 273.255 283.61C243.902 283.598 214.553 283.705 185.199 283.582C180.616 283.563 177.778 282.852 177.97 277.447C178.088 274.136 178.434 272.428 180.904 270.219Z"/><path fill="white" d="M1020.39 64.9859C1026.09 64.3354 1036.82 63.7188 1042.16 65.8171C1043.05 66.1658 1043.36 68.8315 1043.38 69.7169C1043.82 94.0083 1043.63 118.381 1043.4 142.677C1043.39 144.06 1042.69 145.225 1041.84 146.266C1037.27 146.379 1022.35 147.415 1019.48 144.841C1017.34 139.457 1018.94 78.6057 1018.61 68.2338C1018.55 66.4964 1019.24 65.8893 1020.39 64.9859Z"/><path fill="white" d="M887.693 65.1931C893.927 64.7815 905.55 65.1319 911.918 65.3899C912.759 74.839 913.368 137.73 911.661 145.763C908.203 146.663 891.451 147.041 888.195 145.346C886.81 141.953 886.969 70.4708 887.693 65.1931Z"/><path fill="white" d="M256.968 169.068C262.865 168.947 282.39 168.069 286.806 169.581C288.142 170.825 288.553 171.152 288.832 173.018C288.426 175.146 285.737 177.019 283.999 178.55C283.636 180.112 283.775 192.414 283.774 194.652L283.774 234.478C286.927 236.023 288.032 236.361 288.73 239.876C288.287 241.842 287.808 242.213 286.386 243.569C280.572 243.644 260.671 244.387 256.398 242.858C255.217 241.483 254.74 241.044 254.637 239.172C255.257 237.037 257.845 235.689 259.753 234.42C260.861 227.959 259.288 189.521 259.858 180.273C259.982 178.242 255.696 175.767 254.955 173.266C255.184 171.08 255.53 170.708 256.968 169.068Z"/><path fill="white" d="M193.845 251.272C204.7 250.831 217.797 251.151 228.805 251.153L294.218 251.16C312.059 251.142 330.322 250.553 348.057 251.637C351.159 251.827 352.829 260.28 347.755 263.106C338.215 263.904 197.333 263.841 194.178 262.755C193.709 262.594 193.085 262.06 192.649 261.782C190.478 258.452 191.525 254.241 193.845 251.272Z"/><path fill="white" d="M306.961 169.07C312.266 168.577 333.397 167.86 337.452 170.142C338.003 170.862 338.647 171.609 338.75 172.538C339.084 175.554 335.6 175.958 334.216 177.872C333.534 178.814 333.29 229.397 333.975 233.179C334.325 235.107 334.871 235.103 336.377 236.17C337.812 237.186 338.329 237.878 338.625 239.588C338.082 241.809 337.849 242.155 336.149 243.676C330.261 243.742 310.945 244.509 306.597 242.805C301.806 237.235 309.583 235.864 309.67 234.086C310.544 216.238 309.877 197.852 310.056 179.863C310.073 178.115 305.915 175.802 305.224 173.273C305.468 171.139 305.652 170.781 306.961 169.07Z"/><path fill="white" d="M206.769 169.081C211.86 168.875 232.781 168.309 236.304 169.787C241.706 176.037 233.254 175.229 233.213 179.959C233.07 196.189 233.298 212.506 232.921 228.74C232.704 238.084 236.787 234.268 238.048 239.849C237.089 242.39 237.651 241.875 235.629 243.495C229.178 243.528 207.725 245.094 203.987 240.637C203.546 237.618 206.702 235.695 209.248 234.794C209.649 215.948 209.36 196.838 209.037 178.011C209.034 177.849 205.148 175.561 204.41 172.7C204.951 170.705 205.244 170.415 206.769 169.081Z"/><path fill="white" d="M1027.63 23.4895C1035.51 21.4935 1043.51 26.2479 1045.51 34.1111C1047.51 41.9742 1042.76 49.9712 1034.89 51.9768C1027.01 53.9841 1019 49.2296 1016.99 41.3596C1014.99 33.4897 1019.75 25.4872 1027.63 23.4895Z"/><path fill="white" d="M903.337 24.3626C907.6 24.2669 925.309 22.8787 927.706 26.0644C927.892 30.6695 914.16 44.9708 910.811 49.0145C907.481 52.8103 894.353 52.3764 890.107 50.9263L889.704 49.866C890.413 44.7891 900.102 29.0718 903.337 24.3626Z"/></svg>