<?xml version="1.0" encoding="utf-8" ?><svg xmlns="http://www.w3.org/2000/svg" xmlns:xlink="http://www.w3.org/1999/xlink" width="1250" height="330" viewBox="0 0 1250 330"><path fill="white" d="M266.947 139.438C314.316 138.113 353.847 175.301 355.385 222.635C356.923 269.968 319.889 309.641 272.534 311.39C224.878 313.149 184.875 275.852 183.327 228.218C181.78 180.584 219.278 140.772 266.947 139.438ZM276.189 295.904C315.203 292.14 343.772 257.473 339.992 218.485C336.212 179.496 301.515 150.956 262.504 154.747C223.511 158.536 194.97 193.192 198.748 232.162C202.527 271.133 237.194 299.668 276.189 295.904Z"/><path fill="white" d="M265.979 174.982C266.278 174.954 266.578 174.937 266.879 174.933C269.338 174.894 271.733 174.907 273.565 176.813C277.417 180.82 275.502 214.395 275.457 221.437C284.053 227.769 292.994 233.614 301.531 240.026C308.309 245.117 307.6 248.331 301.822 253.649C301.037 253.722 300.252 253.771 299.463 253.739C295.624 253.586 267.423 233.502 263.548 229.47C263.416 229.333 263.279 229.201 263.154 229.058C261.66 227.352 262.072 185.318 262.418 179.944C262.569 177.587 264.317 176.453 265.979 174.982Z"/><path fill="white" d="M31.3677 132.448C32.48 132.366 33.663 132.293 34.7748 132.283L84.6136 132.242C89.3385 132.24 105.074 131.909 108.862 132.654C112.311 133.356 115.473 135.067 117.946 137.57C119.979 139.591 122.128 143.154 122.455 146.086C123.914 162.565 122.969 180.57 123.338 197.083C123.882 232.692 91.8161 211.164 75.7029 225.129C68.5711 231.31 70.7023 256.045 70.7661 265.647C70.669 273.695 72.2871 287.058 69.0031 294.092C63.7199 305.408 50.6959 303.765 40.4002 303.761C32.7928 303.758 22.4591 302.927 18.6941 294.867C15.7616 284.972 16.7116 271.758 16.7243 261.383L16.6641 222.706C16.6166 199.099 16.4317 175.479 16.7234 151.877C16.8558 141.156 21.0938 135.789 31.3677 132.448Z"/><path fill="white" d="M421.922 175.191C443.895 175.121 488.535 172.434 507.393 179.918C518.054 184.149 527.052 191.579 531.631 202.313C536.39 213.466 536.429 228.545 531.838 239.761C527.121 251.284 518.279 258.301 507.051 262.975C507.658 263.829 510.075 267.323 510.415 268.073C514.208 276.455 541.113 309.031 539.032 316.068C535.63 318.766 519.171 317.799 513.923 317.737C510.68 317.808 508.199 317.633 504.996 317.393C502.154 314.427 496.549 305.228 494.042 301.305C487.131 290.479 480.283 279.613 473.499 268.708C466.566 268.508 459.629 268.497 452.696 268.677C451.894 283.157 453.113 297.714 452.333 312.341C451.984 320.331 440.261 316.942 434.674 317.772C431.571 318.232 421.191 318.18 419.298 315.633C418.574 313.013 418.27 310.024 418.265 307.296C418.199 266.092 418.271 224.882 418.222 183.677C418.216 179.028 417.606 177.672 421.922 175.191ZM452.648 242.12C464.773 242.241 480.653 243.553 491.585 239.432C500.344 233.774 503.158 225.18 500.134 215.007C495.356 198.932 470.955 201.935 457.653 202.216C455.951 202.259 454.044 202.064 452.799 203.126C452.253 206.146 452.319 238.196 452.648 242.12Z"/><path fill="white" d="M733.841 175.188L770.783 175.083C792.569 175.034 814.326 173.188 832.247 188.509C850.295 203.939 850.807 236.039 835.52 253.568C824.872 265.778 810.476 269.675 794.778 270.679C785.841 271.165 773.401 270.843 764.229 270.879C763.977 278.915 765.281 311.505 762.81 315.929C760.072 318.165 756.419 317.798 753.049 317.626C747.753 317.357 735.165 319.252 731.307 315.861C730.408 313.531 730.013 309.586 730.015 307.026C730.044 264.255 729.595 221.395 730.292 178.658C730.316 177.151 732.652 175.868 733.841 175.188ZM806.545 238.29C814.237 229.864 815.193 215.741 806.942 207.873C798.494 199.816 775.628 201.418 764.57 201.982C764.441 201.989 764.311 201.996 764.182 202.005C764.125 207.778 763.304 240.348 765.124 243.053C768.218 244.429 773.255 244.243 776.673 244.124C787.463 243.749 797.318 245.299 806.545 238.29Z"/><path fill="white" d="M627.891 173.472C651.512 171.921 671.382 174.809 691.031 189.582C693.259 191.257 695.722 193.582 696.032 196.464C694.364 200.585 680.7 213.707 676.472 215.661C676.103 215.644 660.877 205.966 656.903 204.363C634.752 195.426 602.311 204.222 594.601 228.761C579.22 277.715 624.342 305.427 668.082 285.897C668.153 278.79 668.312 271.514 668.122 264.422C661.3 263.745 641.907 265.314 638.271 262.866C635.803 258.98 635.565 244.716 638.187 240.505C639.334 238.663 647.196 238.892 649.715 238.818C663.082 238.605 676.452 238.645 689.817 238.938C691.985 239.004 697.332 238.944 698.79 240.569C701.922 244.058 700.681 293.188 700.433 300.794C691.306 309.969 668.24 316.432 655.565 318.138C630.757 321.479 604.607 318.977 584.104 303.452C569.289 292.3 559.586 275.661 557.18 257.282C553.667 231.324 563.179 205.596 584.377 189.848C598.245 179.545 610.961 175.716 627.891 173.472Z"/><path fill="white" d="M422.977 17.9889C440.219 17.9703 476.271 15.8224 491.128 21.2297C499.227 24.1773 506.353 29.4891 510.019 37.4627C513.455 44.9365 513.868 55.2196 510.981 62.9614C507.746 71.6338 501.393 76.2423 493.296 79.9187C500.202 82.2902 505.413 84.3154 510.241 90.2156C519.409 101.418 519.251 115.522 512.967 127.89C497.658 149.981 472.658 145.988 449.153 146.439C445.123 146.516 421.486 147.429 419.452 144.846C417.47 138.067 417.751 22.0067 418.915 19.6518C420.183 18.2399 421.123 18.2596 422.977 17.9889ZM446.826 124.956C458.704 125.181 474.569 127.064 484.481 120.267C490.853 112.991 490.686 102.526 483.401 96.3125C475.515 89.5865 457.062 91.4435 446.843 91.5397C446.715 102.678 446.71 113.818 446.826 124.956ZM446.895 71.1134C457.262 71.3991 471.793 72.9711 480.165 66.6032C485.977 59.7565 486.161 49.2489 479.325 43.4438C472.625 37.7551 455.273 39.4528 446.815 39.5745C446.818 49.7151 446.564 61.0728 446.895 71.1134Z"/><path fill="white" d="M31.8183 12.9621C35.2583 12.6207 39.0469 12.713 42.5239 12.7751C64.4618 13.1671 86.5053 12.27 108.413 13.1609C110.671 13.2527 113.887 15.0393 115.715 16.1902C122.533 20.4817 123.584 28.3045 123.299 35.6964C123.099 56.9508 123.791 78.2906 123.001 99.5157C122.669 108.421 115.779 113.638 107.568 115.191C85.9321 117.373 57.6353 114.14 35.2464 115.219C29.1507 115.513 18.2981 110.054 17.6736 103.234C15.5163 79.6758 17.1152 54.8919 17.0028 31.1278C16.9527 20.5235 22.9244 15.6028 31.8183 12.9621Z"/><path fill="white" d="M156.33 12.9952C161.737 12.7559 167.625 12.8652 173.087 12.9033C190.046 13.0217 207.067 12.5309 224.013 12.9512C236.103 13.2511 242.056 21.6475 242.014 32.8548C241.933 54.7785 242.435 76.3123 241.857 98.186C241.605 107.05 235.793 112.534 227.717 115.029C222.782 115.692 205.548 116.071 199 115.357C184.362 113.762 154.914 120.443 145.062 108.328C144.384 107.495 142.433 103.795 142.361 102.964C140.296 79.0523 141.666 54.2989 141.663 30.2259C141.663 20.818 147.892 15.5197 156.33 12.9952Z"/><path fill="white" d="M910.472 173.437C920.794 172.033 937.779 173.746 947.409 177.722C953.472 180.226 966.162 185.821 968.929 191.85C969.038 196.179 955.635 212.942 953.21 211.866C940.905 206.404 931.867 197.736 916.856 199.84C911.336 200.614 906.097 201.45 902.329 206.121C890.457 221.972 915.156 229.04 926.098 232.179C949.353 238.864 973.803 248.692 971.95 277.738C970.001 308.28 947.285 316.613 921.136 319.495C901.407 319.797 883.981 316.334 867.91 304.572C863.055 301.019 858.958 298.055 864.005 292.493C865.958 290.341 874.86 277.527 877.221 277.425C881.832 277.228 892.818 287.467 897.868 288.995C906.471 292.06 913.261 292.914 922.279 292.321C929.93 291.817 940.886 285.303 939.132 276.624C936.529 263.74 911.71 260.767 901.643 256.42C894.985 254.136 889.357 251.383 883.461 247.523C865.132 235.52 862.069 209.616 874.829 192.309C883.797 180.146 895.619 175.9 910.472 173.437Z"/><path fill="white" d="M1103.19 58.3552C1128.18 55.4014 1150.82 73.2757 1153.72 98.2515C1156.63 123.227 1138.71 145.821 1113.71 148.681C1088.78 151.534 1066.25 133.675 1063.34 108.765C1060.44 83.8551 1078.27 61.3011 1103.19 58.3552ZM1113.1 127.533C1114.53 127.034 1117.22 126.08 1118.44 125.301C1132.11 116.586 1132.05 87.7248 1116.66 80.7088C1112.48 78.8004 1108.2 78.856 1103.75 79.5928C1078.73 88.4506 1085.89 132.746 1113.1 127.533Z"/><path fill="white" d="M566.886 59.3579C567.767 59.3129 568.649 59.274 569.531 59.2413C596.575 58.2551 611.259 74.3429 612.571 100.394C612.732 103.584 612.54 106.73 610.255 109.146C606.525 111.247 561.896 110.37 554.115 110.373C554.437 111.751 554.793 113.121 555.183 114.482C558.726 126.602 569.678 130.383 581.104 128.32C588.292 127.022 592.553 123.444 599.037 121.483C601.32 122.167 600.962 122.433 602.686 124.611C604.362 127.013 610.252 134.155 607.274 136.89C592.157 150.777 562.339 151.5 545.774 139.831C526.07 125.95 524.076 94.5636 537.384 75.7129C544.911 65.1125 554.715 61.2617 566.886 59.3579ZM554.262 94.7515L574.844 94.7083L588.728 94.6463C585.848 81.4526 582.621 76.9761 568.563 77.5893C558.924 80.9998 556.331 84.4624 554.262 94.7515Z"/><path fill="white" d="M764.148 59.366C765.537 59.2777 766.926 59.2144 768.317 59.176C795.657 58.4647 810.704 78.2667 809.265 104.49C809.17 106.232 808.346 107.94 807.136 109.172C803.446 111.245 758.857 110.413 751.44 110.42C753.559 118.856 757.498 125.516 766.508 127.948C777.846 131.008 786.759 125.94 796.267 120.547C797.638 121.77 798.857 123.361 800.031 124.79C801.352 126.693 804.97 131.649 805.176 133.47C805.169 141.524 788.393 145.869 782.101 147.063C736.868 155.644 711.431 112.715 734.985 75.5289C741.139 65.8123 752.559 61.164 764.148 59.366ZM751.302 94.6922L773.468 94.6538L785.502 94.5424C783.543 81.8958 779.453 76.7444 765.815 77.5408C755.97 80.9785 753.668 84.4081 751.302 94.6922Z"/><path fill="white" d="M675.301 59.2969C681.465 58.9545 687.391 58.9704 693.269 61.139C699.924 63.5451 705.318 68.546 708.217 74.9982C714.215 88.1178 710.465 113.508 711.512 128.229C711.762 131.731 711.863 141.862 710.775 144.774C706.314 147.732 694.195 145.937 688.694 146.208C683.744 145.892 685.85 136.828 685.362 133.737C683.227 120.203 693.149 79.1233 671.63 79.3713C667.875 79.4146 661.979 82.1228 658.835 84.2142C648.782 93.4845 654.543 120.219 653.32 133.195C653.063 135.912 654.838 145.97 650.155 146.064C645.466 146.158 631.832 147.356 628.429 145.378C627.91 144.749 627.593 144.116 627.512 143.296C626.8 136.042 626.746 63.742 628.264 62.0275C629.634 60.4815 633.202 60.3435 635.128 60.2721C638.509 60.147 648.808 59.4326 651.125 61.6746C653.231 63.713 652.561 68.9679 652.549 71.7326C660.139 63.6608 664.358 61.2916 675.301 59.2969Z"/><path fill="white" d="M862.219 17.3359C864.821 16.8938 870.909 17.4343 873.743 17.5189C884.895 17.8517 880.781 32.7057 879.906 40.4983C860.39 36.5042 857.803 42.2961 858.41 60.349C865.194 60.5014 887.716 54.0735 877.843 78.8926C876.79 81.5397 862.406 80.0527 858.185 80.0396C858.354 101.571 858.345 123.103 858.157 144.633C855.233 146.975 851.264 146.451 847.703 146.291C843.832 146.116 836.562 147.264 833.3 145.39C831.44 140.244 832.379 88.1854 832.37 79.9846C827.483 79.9667 822.597 79.9221 817.712 79.8508C817.427 74.9197 815.904 65.8038 818.241 62.1822C821.788 59.2499 827.707 60.2186 832.443 60.3561C832.213 37.1702 834.316 20.3081 862.219 17.3359Z"/><path fill="white" d="M1196.01 59.3604C1208.79 58.6887 1223.01 60.507 1233.08 69.0717C1230.68 73.3218 1226.16 80.4159 1223.24 84.1432C1215.83 80.1337 1202.62 74.2343 1194.51 78.9909C1192.65 80.0687 1191.29 81.833 1190.72 83.9048C1191.15 91.1812 1206.99 93.394 1212.95 95.4725C1223.48 99.1497 1233.42 104.736 1234.19 117.381C1235.45 138.088 1219.91 147.084 1201.17 147.719C1192.99 147.862 1167.68 144.965 1164.88 136.198C1164.86 131.895 1171.13 124.091 1173.93 120.667C1183.37 125.874 1190.88 131.034 1202.39 129.213C1206.64 128.542 1211.02 125.745 1209.81 121.046C1207.77 114.628 1194.6 112.652 1188.02 110.809C1168.36 105.298 1161.18 89.4973 1171.68 71.5481C1175.91 64.3165 1187.41 60.7148 1196.01 59.3604Z"/><path fill="white" d="M102.553 239.923C109.046 239.052 137.768 238.71 143.85 241.231C157.256 246.786 152.619 275.379 152.85 287.374C152.974 293.821 147.452 300.256 140.539 302.99C133.591 304.31 106.82 304.421 100.747 302.115C96.725 300.588 93.5733 297.742 91.8477 293.781C89.3791 288.115 89.2243 255.608 91.5585 249.709C93.6215 244.496 97.6118 242.063 102.553 239.923Z"/><path fill="white" d="M972.069 59.3638C983.871 58.5948 994.898 60.505 1004.9 67.2449C1012.26 72.2045 1000.87 82.2323 997.046 86.6832C992.589 83.9305 989.121 81.2363 983.893 80.0549C954.549 73.4234 948.933 120.915 974.862 127.423C983.578 129.61 990.63 124.664 997.695 120.217C999.694 122.039 1001.89 124.952 1003.63 127.115C1005.51 129.484 1009.81 134.343 1006.89 137.201C1001.03 142.608 992.832 146.013 984.914 147.327C942.99 154.287 918.164 110.976 940.812 76.7866C947.892 66.0982 959.453 61.2863 972.069 59.3638Z"/><path fill="white" d="M893.703 60.5077C898.606 60.418 912.929 59.518 916.654 61.5129C917.676 63.3805 917.966 66.9026 917.967 69.0862C917.982 93.6702 918.437 118.321 917.799 142.889C917.765 144.201 916.95 145.32 916.093 146.237C911.301 146.365 896.732 147.368 892.952 145.062C891.825 142.815 891.743 135.71 891.766 133.07C891.965 110.089 891.838 87.1011 892.009 64.1262C892.019 62.7096 892.816 61.5351 893.703 60.5077Z"/><path fill="white" d="M1023.9 60.4928C1028.02 60.3945 1046.61 58.7033 1047.04 63.2049C1048.76 80.8808 1047.51 99.1936 1047.88 117.016C1047.99 122.28 1048.51 142.92 1046.57 146.004C1041.79 146.357 1027.71 147.016 1023.75 145.424C1022.4 144.207 1022.32 139.397 1022.31 137.452C1022.27 112.882 1022.08 88.2732 1022.46 63.7125C1022.48 62.5584 1023.19 61.3627 1023.9 60.4928Z"/><path fill="white" d="M909.991 17.9139C915.348 17.8617 930.428 16.5007 933.692 20.4422C933.932 24.0886 918.928 40.9099 915.922 44.7321C915.455 45.2935 913.971 46.6784 913.333 46.746C909.681 47.1326 898.086 47.5763 895.218 46.1775C893.593 42.6512 906.927 19.6733 909.991 17.9139Z"/><path fill="white" d="M1034 17.8593C1048.6 16.9032 1054.24 34.6478 1045.94 43.4818C1043.81 45.7518 1040.86 47.0595 1037.75 47.1031C1034.68 47.2391 1031.72 47.0238 1028.65 46.85C1027.91 46.3729 1027.18 45.8821 1026.45 45.3778C1022.91 42.8935 1020.75 39.6205 1020.02 35.3092C1019.35 31.3741 1020.27 27.3345 1022.59 24.0834C1025.71 19.7899 1029.05 18.6286 1034 17.8593Z"/></svg>