<?xml version="1.0" encoding="UTF-8"?>
<svg id="Camada_1" data-name="Camada 1" xmlns="http://www.w3.org/2000/svg" xmlns:xlink="http://www.w3.org/1999/xlink" viewBox="0 0 539.21 189.43">
  <defs>
    <style>
      .cls-1 {
        fill: url(#linear-gradient-2);
      }

      .cls-2 {
        fill: url(#linear-gradient);
      }

      .cls-3 {
        fill: #152c54;
      }
    </style>
    <linearGradient id="linear-gradient" x1="709.11" y1="31.93" x2="846.35" y2="31.93" gradientTransform="translate(-694.68)" gradientUnits="userSpaceOnUse">
      <stop offset="0" stop-color="#264f95"/>
      <stop offset=".82" stop-color="#1fa098"/>
      <stop offset="1" stop-color="#1fa098"/>
    </linearGradient>
    <linearGradient id="linear-gradient-2" x1="0" y1="119.4" x2="153.82" y2="119.4" gradientTransform="matrix(1,0,0,1,0,0)" xlink:href="#linear-gradient"/>
  </defs>
  <path class="cls-3" d="M241.34,84.78c.58,3.92,2.21,5.05,5.96,5.05,2.02,0,4.42-.35,6.05-.78v-29.94c0-11.23-4.71-14.8-15.95-14.8-7.11,0-13.93,1.57-18.07,3.31.1,5.74,1.54,7.83,4.61,7.83,2.69,0,7.01-1.48,10.67-1.48,5.19,0,5.67,1.74,5.67,8.62-15.76.87-22.39,4.26-22.39,14.62,0,7.57,4.32,12.62,11.43,12.62,5.67,0,9.51-2.26,12.01-5.05ZM240.28,78.16c-1.83,1.48-3.94,2.35-6.34,2.35-2.69,0-4.04-1.91-4.04-5.14,0-1.65.29-3.39.96-4.7,2.3-.7,7.01-1.13,9.42-1.31v8.79ZM210.74,128.77c6.57,0,8.13,1.62,11.23,1.62,2.63,0,5.38-2.71,5.62-12.01-1.55-1.08-6.93-3.25-15.3-3.25-18.16,0-30.71,9.31-30.71,34.31s9.56,35.83,28.08,35.83c7.53,0,13.38-1.73,17.93-4.87l-2.87-11.91c-3.23,1.95-7.29,2.92-11.35,2.92-8.25,0-13.98-4.98-13.98-21.32,0-7.25.96-14.94,3.71-19.7,1.79-.87,5.02-1.62,7.65-1.62ZM345.01,45.09c-2.5,0-5.28.44-7.01,1.13v42.73h13.16v-37.95c0-4.61-1.06-5.92-6.15-5.92ZM249.22,125.09c2.75-.97,11.23-5.2,12.91-6.28,4.66-2.6,6.57-4.98,6.57-7.36s-2.51-5.2-5.74-6.93l-19.6,15.69,5.86,4.87ZM343.38,40.39c6.25,0,8.65-2.26,8.65-5.74,0-3.92-1.73-5.83-5.96-5.83-6.44,0-8.65,2.18-8.65,5.66s1.44,5.92,5.96,5.92ZM467.42,89.82c6.25,0,10.09-3.39,11.44-4.87.86,3.83,2.79,4.79,6.25,4.87,2.4.09,4.61-.18,6.25-.52v-53.18c0-5.48-.96-6.44-6.05-6.44-2.59,0-5.38.44-7.01.96v16.45c-1.63-1.22-4.71-2.78-9.22-2.78-10.86,0-16.14,9.23-16.14,22.8s4.8,22.72,14.51,22.72ZM468.48,54.14c3.56-1.04,7.59,0,9.8,1.57v22.37c-1.15,1.04-3.36,2.18-5.77,2.18-3.46,0-5.86-3.05-5.86-13.06,0-5.83.77-10.79,1.83-13.06ZM321.66,59.45c2.11-1.91,5.19-3.31,9.32-3.31,2.21,0,2.69-1.48,2.79-4.53.1-2.35-.09-5.22-.58-7.31-5.86,0-10.38,3.13-12.68,7.22-.86-5.31-1.63-7.22-5.57-7.22-2.21,0-5.38.52-6.44,1.13v43.52h13.16v-29.51ZM242.68,36.38c3.75-2.09,5.28-4,5.28-5.92s-2.02-4.18-4.61-5.57l-15.76,12.62,4.71,3.92c2.21-.78,9.03-4.18,10.38-5.05ZM198.58,67.63l8.84.17c5,.09,6.92-.7,6.92-4.96,0-1.22-.1-2.96-.48-4.87h-15.28v-14.01l11.05.09c5.28.09,6.92-1.04,6.92-5.13,0-1.22-.1-2.96-.38-4.61h-31.23v54.66h13.65v-21.32ZM307.05,173.9c-2.63,0-4.3-1.41-4.3-4.44v-50.98c0-6.39-1.31-8.01-7.77-8.01-2.87,0-6.45.76-8.6,1.51v59.64c0,9.53,5.38,13.64,13.86,13.64,4.78,0,8.84-.97,11.59-2.38l-.24-9.74c-.84.22-2.75.76-4.54.76ZM437.89,173.9c-2.63,0-4.3-1.41-4.3-4.44v-50.98c0-6.39-1.31-8.01-7.77-8.01-2.87,0-6.45.76-8.6,1.51v59.64c0,9.53,5.38,13.64,13.86,13.64,4.78,0,8.84-.97,11.59-2.38l-.24-9.74c-.84.22-2.75.76-4.54.76ZM427.16,89.04v-29.94c0-11.23-4.71-14.8-15.95-14.8-7.11,0-13.93,1.57-18.07,3.31.1,5.74,1.54,7.83,4.61,7.83,2.69,0,7.02-1.48,10.67-1.48,5.19,0,5.67,1.74,5.67,8.62-15.76.87-22.39,4.26-22.39,14.62,0,7.57,4.32,12.62,11.44,12.62,5.67,0,9.51-2.26,12.01-5.05.58,3.92,2.21,5.05,5.96,5.05,2.02,0,4.42-.35,6.05-.78ZM414.1,78.16c-1.82,1.48-3.94,2.35-6.34,2.35-2.69,0-4.04-1.91-4.04-5.14,0-1.65.29-3.39.96-4.7,2.31-.7,7.02-1.13,9.42-1.31v8.79ZM471.94,128.66c-22.94,0-26.05,16.24-26.05,27.82,0,17.1,7.77,28.79,22.11,28.79,18.76,0,26.29-10.93,26.29-28.03s-6.33-28.57-22.35-28.57ZM475.53,172.49c-1.55.97-3.35,1.41-5.38,1.41-5.26,0-8.01-4.66-8.01-16.99,0-8.98,1.79-13.74,2.63-15.48,1.79-.76,3.58-1.19,5.62-1.19,5.5,0,7.65,4.44,7.65,16.67,0,9.2-2.27,14.83-2.51,15.59ZM517.87,89.82c7.4,0,12.49-1.39,15.66-3.05.1-5.92-.86-7.83-3.17-7.83-1.82,0-4.71,1.48-9.8,1.48s-7.78-3.39-8.07-9.31h22c.29-2.44.29-4.7.29-6.7,0-13.4-4.51-20.11-16.33-20.11-13.55,0-19.7,9.84-19.7,22.63s5,22.89,19.12,22.89ZM513.93,54.57c.29-.09,1.92-1.13,4.04-1.13,3.75,0,5.19,3.74,4.9,9.92l-10.47.61c0-4.96,1.25-8.44,1.54-9.4ZM525.83,150.85c-7.89-2.71-10.16-3.79-10.16-6.6,0-.97.24-2.16.72-2.92,1.32-.43,3.35-.87,5.86-.87,5.02,0,8.01,1.52,10.16,1.52,3.11,0,4.9-3.14,5.02-8.12,0-.97,0-1.95-.12-2.92-3.59-1.3-8.48-2.27-13.74-2.27-14.82,0-22.46,7.47-22.46,17.97,0,7.47,4.18,12.77,14.1,16.34,6.09,2.16,9.32,3.03,9.32,6.06,0,1.3-.36,2.71-.84,3.25-1.31.76-3.35,1.19-6.45,1.19-7.17,0-9.8-2.16-12.19-2.16-2.51,0-3.82,3.46-4.18,7.04,0,1.3.12,2.6.36,3.68,3.58,1.84,8.96,3.25,15.53,3.25,13.5,0,22.46-6.93,22.46-18.62,0-8.55-3.82-13.1-13.38-15.8ZM389.49,169.03c-.48.43-4.3,3.46-8.6,3.46-3.58,0-4.9-1.73-4.9-6.49v-29.33c0-6.49-2.15-7.36-8.6-7.36-2.63,0-6.21.54-7.77.76v38.64c0,10.82,4.42,16.56,14.82,16.56,7.77,0,13.86-4.55,15.42-6.17,1.43,5.2,2.87,6.17,7.17,6.17,3.7,0,7.05-1.08,8.72-1.84v-53.79h-16.25v39.4ZM342.42,173.25c-6.33,0-10.4-4.98-10.4-16.13,0-8.66,2.39-14.29,2.99-15.26,1.43-.54,2.87-.86,4.42-.86,4.06,0,6.81,1.84,8.84,1.84,3.11,0,4.9-3.79,4.9-10.93-.96-.65-5.86-3.25-13.98-3.25-15.89,0-24.14,10.72-24.14,28.68s8.37,27.92,22.94,27.92c7.65,0,12.31-2.38,15.29-4.33l-1.79-9.74c-2.27,1.08-5.62,2.06-9.08,2.06ZM255.55,128.66c-8.84,0-17.33,1.95-22.46,4.11.12,7.14,1.91,9.74,5.74,9.74,3.34,0,8.72-1.84,13.26-1.84,6.45,0,7.05,2.16,7.05,10.72-19.6,1.08-27.84,5.3-27.84,18.18,0,9.42,5.38,15.69,14.22,15.69,7.05,0,11.83-2.81,14.94-6.28.72,4.87,2.75,6.28,7.41,6.28,2.51,0,5.5-.43,7.53-.97v-37.23c0-13.96-5.85-18.4-19.84-18.4ZM259.13,170.76c-2.27,1.84-4.9,2.92-7.89,2.92-3.35,0-5.02-2.38-5.02-6.39,0-2.06.36-4.22,1.19-5.84,2.87-.87,8.72-1.41,11.71-1.62v10.93ZM301.29,66.93c0-17.49-5.86-22.63-14.32-22.63-5.86,0-10.57,3.31-11.63,4.26v-12.45c0-5.22-.96-6.44-6.34-6.44-2.79,0-5.48.7-6.63,1.04v58.66c.96.26,2.98.44,4.33.44,4.03,0,5.96-.78,7.78-4.44,1.15,1.48,5.19,4.44,10.47,4.44,9.61,0,16.34-8.53,16.34-22.89ZM285.44,79.73c-.19.09-1.92.78-4.13.78-2.79,0-5.57-2-5.86-2.26v-22.28c.38-.17,3.46-2,6.05-2,4.32,0,5.96,3.22,5.96,13.49,0,5.31-1.15,10.71-2.02,12.27ZM376.81,89.82c6.15,0,9.9-1.91,12.3-3.48l-1.44-7.83c-1.83.87-4.52,1.66-7.3,1.66-5.09,0-8.36-4-8.36-12.97,0-6.96,1.92-11.49,2.4-12.27,1.15-.44,2.31-.7,3.56-.7,3.27,0,5.48,1.48,7.11,1.48,2.5,0,3.94-3.05,3.94-8.79-.77-.52-4.71-2.61-11.24-2.61-12.78,0-19.41,8.62-19.41,23.06s6.73,22.46,18.45,22.46Z"/>
  <g>
    <path class="cls-2" d="M125.25,1.89c-12.52,0-23.02,8.47-25.73,19.78-3.7-2.32-8.1-3.68-12.83-3.68-1.72,0-3.4.19-5.02.53-.12-10.23-8.75-18.52-19.36-18.52-7.05,0-13.22,3.68-16.61,9.14-3.18-2.02-6.98-3.21-11.07-3.21-11.14,0-20.21,8.76-20.21,19.54s9.06,19.54,20.21,19.54c7.65,0,14.32-4.14,17.75-10.22,2.91,1.69,6.29,2.67,9.92,2.67.33,0,.65-.03.97-.05-.18,1.15-.31,2.31-.31,3.51,0,12.64,10.64,22.93,23.71,22.93,10.6,0,19.6-6.77,22.63-16.07,4.43,3.25,9.95,5.19,15.94,5.19,14.57,0,26.41-11.46,26.41-25.54S139.82,1.89,125.25,1.89ZM125.25,46.09c-6.42,0-12.09-3.04-15.6-7.71-1.38-1.99-6.35-2.1-6.41,1.65.02.3.05.59.05.89,0,8.86-7.43,16.05-16.6,16.05s-16.6-7.19-16.6-16.05c0-2.26.49-4.4,1.36-6.35.65-3.55-.96-5.54-4.4-4.9-1.46.59-3.06.92-4.74.92-3.92,0-7.4-1.78-9.64-4.55-1.3-2.02-5.06-.75-5.13,1.46-1.01,6.02-6.39,10.62-12.91,10.62-7.23,0-13.09-5.67-13.09-12.66s5.86-12.66,13.09-12.66c4.09,0,7.74,1.82,10.14,4.66,1.58,2.41,5.44.89,5.52-1.12,1.14-5.4,6.09-9.46,12.01-9.46,6.77,0,12.26,5.31,12.26,11.85,0,1.61-.34,3.15-.94,4.55-.6,4.09,1.84,4.58,4.56,3.87,2.49-1.44,5.39-2.28,8.5-2.28,5.6,0,10.54,2.69,13.55,6.8,2.23,2.85,6.71,1.1,5.79-2.75-.04-.49-.08-.99-.08-1.49,0-10.31,8.64-18.66,19.3-18.66s19.3,8.35,19.3,18.66-8.64,18.66-19.3,18.66ZM40.73,24.18h-4.27v-3.87c0-.74-.18-1.29-.55-1.64-.36-.35-.83-.53-1.41-.53s-1.06.18-1.43.54c-.36.36-.55.9-.55,1.63v3.87h-4.27c-.8,0-1.41.17-1.8.5-.4.33-.6.76-.6,1.29s.2.95.61,1.28c.41.33,1,.5,1.79.5h4.27v3.87c0,.73.18,1.27.55,1.63s.84.54,1.43.54,1.05-.19,1.41-.55c.37-.37.55-.91.55-1.62v-3.87h4.27c.82,0,1.42-.17,1.81-.5.39-.33.59-.76.59-1.28s-.2-.96-.6-1.29c-.4-.33-1-.5-1.8-.5ZM80.93,39.02c.98.01,1.81-.29,2.49-.9.62-.56.93-1.32.95-2.27.01-.95-.29-1.71-.91-2.27-.77-.7-1.62-1.03-2.55-.98-.92.05-1.72.37-2.4.98-.7.63-1.08,1.37-1.14,2.2-.06.84.3,1.61,1.09,2.32.66.6,1.49.91,2.47.92ZM91.58,42.27c-.97.01-1.81.33-2.51.96-.7.63-1.04,1.38-1.03,2.26.01.87.35,1.61,1.03,2.22.8.72,1.67,1.06,2.61,1.01.94-.05,1.75-.39,2.44-1.01.66-.6,1.02-1.33,1.06-2.18.04-.85-.33-1.63-1.11-2.34-.69-.62-1.52-.93-2.49-.92ZM91.82,32.51l-13.85,12.54c-.89.81-.85,2.17.11,3.03.95.86,2.46.9,3.35.1l13.84-12.54c.89-.81.85-2.18-.11-3.04-.95-.86-2.46-.9-3.35-.09ZM69.29,17.59h-3.94l1.97-3.09c.46-.72.18-1.65-.61-2.06-.79-.41-1.82-.17-2.28.55l-1.97,3.09-1.97-3.09c-.46-.72-1.48-.97-2.28-.55-.79.42-1.07,1.34-.61,2.06l1.97,3.09h-3.94c-.92,0-1.67.68-1.67,1.51s.75,1.51,1.67,1.51h3.94l-1.97,3.09c-.46.72-.18,1.65.61,2.06s1.82.17,2.28-.55l1.97-3.09,1.97,3.09c.46.72,1.48.97,2.28.55s1.07-1.34.61-2.06l-1.97-3.09h3.94c.92,0,1.67-.68,1.67-1.51s-.75-1.51-1.67-1.51ZM135.04,29.3h-18.82c-1.11,0-2.02.91-2.02,2.02v1.21c0,1.11.91,2.02,2.02,2.02h18.82c1.11,0,2.02-.91,2.02-2.02v-1.21c0-1.11-.91-2.02-2.02-2.02ZM135.04,20.09h-18.82c-1.11,0-2.02.91-2.02,2.02v1.21c0,1.11.91,2.02,2.02,2.02h18.82c1.11,0,2.02-.91,2.02-2.02v-1.21c0-1.11-.91-2.02-2.02-2.02Z"/>
    <path class="cls-1" d="M153.73,112.07l-3.95-22.1c-.39-2.17-2.03-3.98-4.31-4.73-.75-.25-1.54-.37-2.31-.37-1.57,0-3.12.5-4.35,1.45l-18.6,14.36-1.91-10.71c-.39-2.17-2.03-3.98-4.31-4.73-.75-.25-1.54-.37-2.31-.37-1.57,0-3.12.5-4.35,1.45l-15.87,12.26-1.54-8.6c-.39-2.17-2.03-3.98-4.31-4.73-.75-.25-1.54-.37-2.32-.37-1.57,0-3.12.5-4.35,1.45l-22.88,17.66-2.91-32.13h.66c1.71,0,3.1-1.26,3.1-2.8v-16.87c0-1.55-1.39-2.81-3.1-2.81H11.76c-1.71,0-3.1,1.26-3.1,2.81v16.87c0,1.55,1.39,2.8,3.1,2.8h.66l-8.08,89.1h-1.23c-1.71,0-3.1,1.26-3.1,2.81v22.85c0,1.55,1.39,2.81,3.1,2.81h59.36c.36,0,.7-.07,1.02-.17h83.63c3.71,0,6.71-2.72,6.71-6.08v-70.13c0-.32-.03-.65-.09-.97ZM14.85,54.99h35.85v11.26H14.85v-11.26ZM18.63,71.86h28.3l8.08,89.1H10.55l8.08-89.1ZM59.36,183.82H6.19v-17.24h.99s0,0,0,0h51.18s0,0,0,0h.99v17.24ZM147.1,183.18h-81.55v-19.41c0-1.55-1.39-2.81-3.1-2.81h-1.24l-4.49-49.51,26.55-20.5,3.44,19.26,24.95-19.26,3.82,21.36,27.67-21.36,3.95,22.1v70.13ZM98.3,127.57h-18.65c-1.71,0-3.1,1.26-3.1,2.8v33.39c0,1.55,1.39,2.8,3.1,2.8h18.65c1.71,0,3.1-1.26,3.1-2.8v-33.39c0-1.55-1.39-2.8-3.1-2.8ZM95.2,160.96h-12.45v-27.78h12.45v27.78ZM131.07,127.57h-18.65c-1.71,0-3.1,1.26-3.1,2.8v33.39c0,1.55,1.39,2.8,3.1,2.8h18.65c1.71,0,3.1-1.26,3.1-2.8v-33.39c0-1.55-1.39-2.8-3.1-2.8ZM127.97,160.96h-12.45v-27.78h12.45v27.78Z"/>
  </g>
</svg>