<?xml version="1.0" encoding="utf-8" ?><svg xmlns="http://www.w3.org/2000/svg" xmlns:xlink="http://www.w3.org/1999/xlink" width="922" height="333" viewBox="0 0 922 333"><clipPath id="cl_4"><rect x="0.0013160706" y="-0.00063323975" width="922.00006" height="333"/></clipPath><g clip-path="url(#cl_4)"><path transform="matrix(0.56426 0 0 0.564407 -47.3965 -67.165)" d="M525.984 371.997C539.575 372.168 549.088 370.24 558.511 381.695C559.35 392.027 559.97 402.31 561.954 412.487C566.995 415.894 578.904 420.969 584.85 424.06C593.136 428.368 602.577 434.198 611.01 437.589C623.823 433.873 641.102 414.947 651.953 423.698C660.487 430.58 676.496 452.775 678.299 463.472C680.217 474.851 658.698 484.02 650.886 494.524C652.405 506.481 655.444 520.907 656.598 532.97C657.968 550.759 676.793 547.943 688.14 556.123C698.908 563.885 690.936 577.631 688.461 587.676C686.996 593.624 684.387 601.185 680.666 605.972C670.609 618.909 656.893 604.307 644.769 605.572C635.098 605.525 627.5 623.929 623.187 627.213C601.158 643.985 615.135 650.113 619.811 670.993C620.291 673.139 619.795 678.847 617.248 681.269C607.297 690.734 591.113 697.998 577.626 700.447C563.149 701.691 562.044 679.624 548.432 667.604C541.785 668.103 535.127 668.431 528.463 668.586C522.971 668.173 515.231 667.289 509.932 667.934C490.583 669.839 495.821 690.479 482.299 698.504C471.598 704.854 439.748 687.818 433.843 678.514C429.692 671.974 440.22 648.285 443.221 640.712C432.518 629.13 421.829 616.971 411.254 605.226C402.985 606.966 386.526 611.564 378.963 610.274C366.92 608.221 358.208 571.753 360.828 561.878C363.601 551.425 378.126 552.369 386.405 547.887C398.471 541.354 395.155 527.477 397.773 516.119C398.079 511.472 401.95 501.701 401.654 497.401C400.467 480.12 367.949 482.656 376.052 458.83C379.354 449.12 394.275 428.005 402.605 421.857C411.407 415.359 430.333 434.478 438.586 436.804C446.827 439.328 458.718 428.109 466.614 424.626C469.532 422.56 486.398 416.122 487.943 414.309C500.9 399.106 483.464 385.78 504.865 372.617L525.984 371.997ZM534.884 610.158C574.349 605.449 602.527 569.644 597.827 530.178C593.127 490.712 557.328 462.526 517.861 467.217C478.381 471.909 450.184 507.722 454.885 547.201C459.587 586.68 495.406 614.869 534.884 610.158Z"/><path transform="matrix(0.56426 0 0 0.564407 -47.3965 -67.165)" d="M239.276 369.401C251.698 368.915 271.148 368.536 280.679 377.343C295.976 391.477 291.678 408.689 291.107 427.377C290.309 453.539 298.986 491.346 282.651 514.171C275.027 523.508 258.4 524.172 247.703 523.994C197.902 523.164 197.577 556.153 198.036 594.177L198.518 638.114C198.793 658.918 203.161 693.625 176.232 700.045C170.833 701.333 161.821 701.181 156.134 701.328C132.146 702.386 100.322 702.838 99.7438 670.287C99.3997 650.912 99.5471 631.536 99.5461 612.157L99.5553 501.914L99.4922 435.15C99.4865 422.153 98.7283 407.198 100.484 394.481C102.94 376.69 120.359 369.912 135.995 369.729C170.434 369.327 204.962 370.433 239.276 369.401Z"/><path transform="matrix(0.56426 0 0 0.564407 -47.3965 -67.165)" d="M837.102 450.805C878.933 449.753 930.497 450.222 953.874 491.922C967.956 517.04 967.956 552.526 952.256 576.942C943.459 590.623 930.015 598.724 916.082 606.453C926.075 622.597 972.965 685.486 972.468 698.558C966.987 708.645 927.548 704.034 916.48 703.6C907.468 703.246 898.881 685.804 894.664 678.674C882.669 659.133 868.385 635.271 855.448 616.714C849.727 616.501 830.577 614.27 829.105 621.317C824.019 645.665 834.234 675.405 825.669 699.264C821.673 705.114 809.724 704.417 804.01 704.787C762.106 707.501 770.037 695.877 770.196 658.465L770.442 589.131C770.547 563.669 770.505 538.207 770.314 512.746C770.2 496.998 769.852 481.208 770.316 465.474C770.314 459.008 772.425 452.061 780.078 451.528C798.934 450.215 818.135 451.823 837.102 450.805ZM829.939 502.401C827.687 512.192 826.159 556.709 829.73 564.587C837.054 571.417 874.19 567.772 883.772 564.709C911.822 552.926 912.983 517.156 884.579 505.534C874.26 501.312 855.165 500.795 844.074 502.021L829.939 502.401Z"/><path transform="matrix(0.56426 0 0 0.564407 -47.3965 -67.165)" d="M1120.57 446.477C1155.98 444.656 1199.41 457.867 1223.97 484.381C1218.3 498.38 1201.92 514.427 1189.73 522.956C1180.55 518.086 1169.77 509.501 1160.31 505.693C1139.77 497.428 1115.56 497.174 1095.13 505.773C1078.38 512.677 1065.09 525.995 1058.23 542.756C1049.52 564.173 1048.53 591.14 1057.61 612.635C1065.27 630.908 1079.9 645.372 1098.25 652.822C1124.48 663.459 1148.79 658.191 1173.75 647.674C1174.48 635.229 1174.13 624.383 1173.86 611.892C1160.36 610.901 1140.43 614.291 1128.94 609.681C1122.08 606.926 1123.01 570.754 1129.08 566.234C1134.87 561.916 1157.16 563.637 1164.32 563.798C1181.9 563.562 1200.36 562.292 1217.85 564.065C1220.34 564.317 1225.16 564.84 1226.76 566.991C1233.24 575.736 1230.9 660.659 1229.32 676.205C1209.15 695.044 1168.2 707.276 1141.04 709.008C1103.16 711.795 1063.18 704.212 1033.55 678.954C979.887 633.22 976.457 543.866 1021.99 491.27C1048.18 461.023 1081.51 449.298 1120.57 446.477Z"/><path transform="matrix(0.56426 0 0 0.564407 -47.3965 -67.165)" d="M364.146 141.559C364.959 141.482 365.773 141.425 366.588 141.386C384.377 140.66 404.254 141.78 422.544 141.924C447.103 142.117 475.358 139.106 499.404 144.09C502.961 144.827 507.583 148.996 510.347 151.39C519.673 159.467 519.443 171.57 519.666 183.317C520.236 211.498 520.402 239.685 520.163 267.87C519.875 297.271 525.216 331.58 483.779 331.809C461.327 332.696 437.795 331.45 415.104 331.71C395.141 331.938 373.614 333.16 353.892 330.717C347.814 329.965 342.359 328.141 337.85 323.99C328.628 315.501 327.296 307.695 326.891 295.854C325.882 266.348 325.57 236.787 326.113 207.272C326.35 194.343 325.822 179.721 328.058 167.089C329.021 161.646 331.323 156.281 335.275 152.392C344.462 143.349 352.382 142.032 364.146 141.559Z"/><path transform="matrix(0.56426 0 0 0.564407 -47.3965 -67.165)" d="M139.258 141.587C141.029 141.494 142.801 141.419 144.574 141.362C169.801 140.576 196.4 141.859 221.726 142.135C237.251 142.886 253.823 140.957 269.125 143.499C285.773 146.266 291.749 165.384 291.768 179.874C292.084 213.902 291.721 248.237 291.93 282.225C292.137 315.925 288.883 331.412 250.118 331.874C229.318 332.3 208.818 331.803 187.871 331.715C166.511 331.627 142.585 334.037 121.494 329.842C117.156 328.979 112.794 325.816 109.611 322.864C101.808 315.889 99.9911 308.12 99.6773 298.074C98.6325 264.376 98.634 230.618 99.1473 196.907C99.3059 186.489 99.1708 175.743 101.188 165.487C102.406 159.294 103.317 157.479 107.633 152.757C116.672 142.868 126.848 142.011 139.258 141.587Z"/><path transform="matrix(0.56426 0 0 0.564407 -47.3965 -67.165)" d="M1299.84 450.854C1318.12 451.274 1336.34 451.256 1354.54 451.105C1385.9 450.773 1420.46 453.617 1443.81 477.165C1474.3 507.839 1474.15 565.342 1443.12 595.634C1419.43 618.761 1388.75 621.11 1357.57 620.964C1352.87 620.906 1334.71 619.513 1333.07 624.669C1325.87 646.13 1337.88 679.972 1328.66 700.459C1327.15 703.808 1272.5 712.028 1272.24 693.622C1271.14 617.451 1273.05 541.32 1272.41 465.135C1272.26 447.706 1286.68 450.926 1299.84 450.854ZM1332.17 570.764C1349.29 571.617 1370.39 573.45 1386.73 567.612C1394.86 564.026 1402.15 558.676 1404.71 549.961C1417.99 504.878 1376.06 499.618 1346.41 502.029L1332.71 502.553C1330.45 514.766 1331.06 557.417 1332.17 570.764Z"/><path transform="matrix(0.56426 0 0 0.564407 -47.3965 -67.165)" d="M790.501 145.934C810.298 145.785 815.934 144.631 815.196 167.143C814.914 175.75 815.075 185.624 815.079 194.328L815.152 267.446C815.186 306.428 809.354 361.248 868.431 358.312C919.556 355.772 913.094 300.567 912.979 263.499L912.552 180.556C912.498 172.255 910.69 155.309 916.443 148.88C918.417 146.674 921.69 146.211 924.519 146.08C929.041 145.87 933.605 146.618 938.136 146.616C944.191 146.614 958.509 143.898 962.976 148.179C970.704 155.586 967.501 211.981 967.437 224.782L967.544 278.459C967.59 315.375 968.745 349.818 940.839 378.317C900.382 419.635 811.869 418.161 778.366 368.762C755.636 335.247 760.85 286.618 761.006 247.463L760.585 167.732C760.447 141.467 768.874 146.012 790.501 145.934Z"/><path transform="matrix(0.56426 0 0 0.564407 -47.3965 -67.165)" d="M1579.46 446.456C1604.79 443.023 1644.63 456.438 1663.51 473.298C1669.3 478.69 1667.26 485.574 1663.12 491.159C1656.39 500.235 1648.86 512.234 1639.85 518.931C1622.51 509.694 1606.59 499.662 1586.27 498.481C1552.64 496.091 1531.99 527.594 1569.98 544.49C1597.38 556.676 1631.2 560.819 1653.21 582.878C1679.39 609.131 1678.23 658.255 1651.79 684.14C1628.47 706.974 1598.98 709.437 1568.11 709.385C1541.84 708.272 1513.55 698.799 1492.44 682.514C1490.03 680.654 1484.44 674.656 1484.73 671.283C1485.58 661.603 1497.65 648.152 1503.45 640.184C1505.01 638.342 1509.61 633.813 1512.23 633.892C1519.08 634.098 1524.58 641.726 1529.95 645.14C1543.92 654.014 1562.12 659.471 1578.65 659.198C1588.42 659.036 1600.99 655.649 1607.26 647.95C1610.79 643.62 1613.18 638.351 1612.56 632.569C1610.22 610.523 1564.81 604.557 1547.21 596.071C1534.86 591.264 1524.99 585.687 1514.56 577.386C1484.25 553.268 1484.11 505.183 1508.28 476.611C1526.57 455.005 1551.72 448.621 1579.46 446.456Z"/><path transform="matrix(0.56426 0 0 0.564407 -47.3965 -67.165)" d="M1392.44 221.192C1406.91 218.982 1471.92 228.696 1456.81 253.851C1452.55 260.947 1444.98 271.837 1438.7 277.396C1424.21 268.322 1400.1 254.256 1382.22 268.384C1380.77 269.524 1379.14 273.806 1379.64 275.549C1384.25 290.068 1411.71 295.793 1426.89 301.161C1465.86 314.948 1475.44 354.724 1449.73 386.234C1436.57 402.37 1413.71 405.746 1392.34 406.791C1374.31 405.935 1334.8 398.581 1326.72 379.05C1325.18 375.332 1341.69 346.657 1348.84 349.299C1366.63 355.882 1378.09 369.819 1399.57 366.923C1406.28 366.016 1415.77 361.126 1415.21 351.428C1409.99 337.209 1384.24 332.758 1370.36 328.162C1330.89 315.087 1320.24 277.183 1343.7 244.141C1353.99 229.634 1374.56 223.332 1392.44 221.192Z"/><path transform="matrix(0.56426 0 0 0.564407 -47.3965 -67.165)" d="M1031.82 176.146C1084.77 176.515 1074.76 172.955 1075.08 225.691C1085.2 225.423 1108.59 223.367 1116.29 228.309C1122.45 232.259 1122.34 261.153 1116.3 265.373C1109.88 269.866 1083.75 267.687 1075.06 267.628C1074.89 281.069 1075.21 294.615 1075 308.111C1074.84 318.54 1074.09 329.7 1074.96 340.005C1075.79 346.599 1077.8 354.444 1083.14 358.789C1091.68 365.738 1106.84 354.21 1114.49 360.817C1121.13 366.55 1121.87 385.937 1122.68 394.313C1111.87 405.042 1096.64 405.599 1082.46 406.188C1056.41 407.271 1031.93 395.897 1026.21 368.152C1022.78 351.471 1023.84 333.437 1023.91 316.158L1023.92 267.622C1017.85 267.729 1003.89 268.756 999.322 265.888C993.982 259.208 993.803 233.788 999.778 227.557C1005.91 224.475 1017.65 225.366 1024.94 225.429C1025.25 211.888 1023.24 194.593 1026.31 181.659C1027.05 178.537 1029.15 177.499 1031.82 176.146Z"/><path transform="matrix(0.56426 0 0 0.564407 -47.3965 -67.165)" d="M1267.24 141.584C1272.45 141.702 1291.72 141.37 1291.97 147.158C1295 216.38 1291.67 286.261 1293.62 355.568C1293.75 360.244 1301.25 360.16 1303.74 362.416C1309.92 368.022 1307.72 378.367 1308.31 385.87C1309.63 405.067 1296.33 404.04 1282.21 404.877C1267.95 406.764 1248.25 400.919 1244.69 385.14C1240.99 368.763 1242.29 352.397 1242.37 335.705L1242.56 269.532L1242.46 194.695C1242.39 181.123 1242.31 167.58 1242.38 154.007C1242.45 138.973 1256.04 141.682 1267.24 141.584Z"/><path transform="matrix(0.56426 0 0 0.564407 -47.3965 -67.165)" d="M258.065 583.232C286.372 582.849 338.713 573.746 335.888 617.789C334.31 642.384 346.654 698.907 308.588 700.783C240.553 703.767 223.964 706.424 228.832 629.281C230.315 605.789 228.013 587.6 258.065 583.232Z"/><path transform="matrix(0.56426 0 0 0.564407 -47.3965 -67.165)" d="M1157 225.43C1167.74 225.148 1191.09 223.493 1199.4 229.054C1201.25 231.45 1201.95 240.302 1201.97 243.55C1202.31 293.665 1202.59 343.854 1202.06 393.96C1202.02 397.467 1198.11 400.419 1195.54 402.212C1186.03 403.114 1175.44 403.075 1165.91 402.572C1152.25 401.598 1150.56 398.55 1150.51 385.6C1150.32 335.997 1150.18 286.388 1150.45 236.825C1150.48 231.3 1152.91 228.664 1157 225.43Z"/><path transform="matrix(0.56426 0 0 0.564407 -47.3965 -67.165)" d="M1170.46 142.527C1186.72 139.062 1202.7 149.449 1206.14 165.713C1209.58 181.978 1199.16 197.944 1182.89 201.353C1166.66 204.754 1150.74 194.371 1147.31 178.146C1143.88 161.921 1154.24 145.984 1170.46 142.527Z"/></g></svg>