<?xml version="1.0" encoding="utf-8" ?><svg xmlns="http://www.w3.org/2000/svg" xmlns:xlink="http://www.w3.org/1999/xlink" width="1250" height="328" viewBox="0 0 1250 328"><path d="M33.168 127.182C48.6777 125.76 67.0184 127.775 82.7765 126.902C91.352 127.543 101.762 125.822 110.169 127.419C126.622 130.545 123.703 151.264 123.614 162.038C123.617 169.335 123.666 176.633 123.762 183.93C123.83 192.369 124.779 202.107 118.378 208.735C107.958 219.093 89.5932 207.789 79.3042 218.102C72.3544 225.068 74.1065 237.946 73.9065 246.986C73.7843 252.509 73.9541 258.389 73.9856 264.019C74.0858 270.982 74.9142 284.131 72.521 290.222C71.0079 294.178 67.9484 297.345 64.049 298.993C58.2419 301.471 36.6876 301.664 30.2801 299.076C27.4364 297.928 22.3587 294.594 21.4259 291.628C20.5569 288.05 19.7351 283.519 19.7293 279.848C19.6585 234.7 19.4776 189.532 19.8106 144.387C19.8817 134.744 24.8811 130.532 33.168 127.182Z"/><path d="M424.838 180.97C445.955 180.931 491.772 178.454 509.611 185.333C520.026 189.349 529.01 196.794 533.544 207.164C538.371 218.075 538.562 230.48 534.075 241.535C529.348 253.516 520.651 260.176 509.241 265.123C514.732 273.229 540.554 308.214 541.404 314.55C541.478 315.097 540.945 315.548 540.613 315.978C534.863 318.61 525.257 317.275 518.951 317.165C514.959 317.263 510.994 317.165 507.004 317.029C502.293 312.332 498.687 305.497 495.05 299.917L475.715 270.184C469.066 269.68 462.259 269.977 455.59 269.994C455.368 277.59 456.752 311.726 454.438 315.44C451.239 318.023 425.611 318.281 422.426 315.145C421.473 309.437 421.766 300.149 421.772 294.117L421.788 260.584C421.564 240.765 421.515 220.945 421.64 201.125C421.706 195.731 421.687 189.496 422.008 184.083C422.086 182.782 423.751 181.676 424.838 180.97ZM497.287 239.904C501.178 236.082 503.172 232.154 503.204 226.605C503.232 221.732 502.001 217.077 498.479 213.562C489.811 204.913 473.04 207.011 461.69 207.108L455.411 207.171C455.432 219.725 454.95 232.496 455.642 245.022C468.251 245.132 486.747 247.729 497.287 239.904Z"/><path d="M628.499 179.19C652.973 177.701 675.158 180.06 694.213 196.297C695.823 197.67 697.273 198.761 697.531 201.017C695.857 205.146 682.081 218.257 677.957 220.07C674.254 219.333 665.158 211.566 660.338 209.737C638.224 201.345 610.07 206.853 599.266 229.801C589.395 250.449 597.126 278.478 618.83 287.943C635.836 295.359 653.458 293.365 670.23 286.876C670.534 280.262 670.515 273.161 670.617 266.507C662.333 266.312 653.915 266.863 645.631 266.389C637.586 265.929 638.811 246.43 641.807 242.421C643.458 240.97 644.652 241.153 646.82 241.141C654.029 241.123 697.919 239.702 700.651 242.569C704.032 246.117 702.549 294.003 702.536 301.396C694.941 309.062 671.991 316.497 661.278 317.721C635.745 320.638 608.235 319.823 586.995 303.949C572.799 293.474 563.411 277.724 560.946 260.247C558.166 241.887 562.866 223.179 573.992 208.318C587.675 190.12 606.617 182.293 628.499 179.19Z"/><path d="M736.145 180.927L772.868 180.843C793.063 180.802 814.822 178.985 831.727 192.235C840.469 199.087 845.439 208.819 846.726 219.742C848.127 231.627 845.326 244.301 837.817 253.771C827.97 266.189 814.205 270.084 799.103 271.801C788.381 272.679 777.369 272.118 766.624 271.947C766.466 283.62 767.951 302.218 766.486 312.848C766.344 313.875 766.087 315.224 765.228 315.861C762.241 318.076 741.675 317.659 737.533 317.011C736.509 316.851 734.52 316.411 733.922 315.515C732.38 313.207 733.102 290.31 733.102 285.787L733.062 211.3C733.05 204.996 732.035 188.609 733.244 183.859C733.588 182.506 735.042 181.646 736.145 180.927ZM766.653 246.077C779.488 246.23 797.032 248.791 807.773 240.854C812.007 236.36 813.892 232.398 813.707 226.123C813.559 221.104 812.31 216.556 808.547 213.041C798.983 204.106 778.811 206.844 766.707 207.029C766.512 219.713 765.519 233.466 766.653 246.077Z"/><path d="M36.8517 8.7944C51.7803 8.55669 66.9762 8.55332 81.9964 8.71127C97.2754 8.87195 122.97 4.14705 123.634 26.471C124.253 47.2795 123.646 67.8288 123.793 88.5949C123.874 99.9858 119.78 109.388 107.04 110.091L61.6337 110.247C49.1235 110.317 20.5197 113.897 19.9693 95.0356C19.4402 71.7241 19.1952 48.0901 20.0705 24.7936C20.4424 14.8971 27.6966 9.8189 36.8517 8.7944Z"/><path d="M163.396 8.84166L207.391 8.72332C214.687 8.71061 224.647 8.09176 231.614 9.38571C239.991 10.9414 244.868 20.0791 244.884 27.9769C244.921 45.633 244.842 63.1514 244.886 80.7526C244.925 96.0151 245.215 109.387 225.802 110.185L181.869 110.287C167.066 110.327 144.85 113.965 144.202 92.1866C143.871 81.0456 143.878 69.6925 143.995 58.5082C144.126 46.0392 143.138 32.7842 145.227 20.5074C147.005 12.0925 156.106 9.1849 163.396 8.84166Z"/><path d="M914.318 178.602C932.766 177.281 952.615 181.33 967.241 193.222C969.179 194.48 970.78 198.211 968.811 200.409C966.887 202.614 956.389 217.736 953.793 216.444C939.985 209.233 917.917 197.344 903.8 210.605C892.898 220.846 910.754 229.774 918.245 232.107C933.51 236.86 950.459 240.628 962.076 251.703C975.964 264.943 974.791 291.332 961.112 304.29C948.048 316.898 932.943 318.954 915.591 319.033C898.021 318.252 874.455 314.178 863.158 298.358C862.881 297.97 863.401 295.811 863.792 295.431C865.255 294.018 877.109 276.858 879.154 278.171C893.061 287.096 921.779 302.64 936.341 287.027C951.394 267.848 911.167 262.174 899.752 257.589C882.19 250.536 868.475 241.228 868.294 220.312C868.06 193.116 890.374 180.888 914.318 178.602Z"/><path d="M1018.19 25.6669C1022.29 25.5978 1040.51 24.5295 1042.7 27.1341C1043.66 35.8608 1043.3 47.6366 1043.3 56.6405L1043.4 99.8553L1043.47 133.979C1043.47 139.365 1043.74 148.88 1042.97 153.831C1040.12 156.696 1022.74 156.475 1019.01 154.572C1017.77 153.94 1017.51 146.728 1017.4 145.1C1004.75 157.296 993.981 159.224 977.314 155.343C947.209 143.9 941.405 101.72 960.229 78.9179C966.514 71.1824 975.626 66.2789 985.539 65.2967C998.596 64.0402 1006.51 66.329 1016.61 74.6452C1016.55 73.3837 1016.46 69.6542 1016.56 68.6422C1017.36 61.0651 1014.37 30.2718 1018.19 25.6669ZM999.904 135.681C1006.73 133.881 1009.84 132.567 1014.13 126.165C1017.73 120.786 1017.78 105.507 1016.16 99.5298C1014.94 94.953 1011.92 91.0626 1007.8 88.7414C1003.88 86.5081 999.033 85.882 994.592 86.2486C989.275 87.3048 982.852 90.2083 980.334 95.1414C971.249 112.942 976.727 136.508 999.904 135.681Z"/><path d="M462.953 27.3932C468.692 26.9068 486.617 27.2092 492.273 27.5337C495.277 32.5249 497.823 41.1428 499.869 46.7991L510.677 76.4064L527.313 122.358C528.99 127.001 538.295 150.423 537.075 153.924C536.739 154.208 535.727 154.97 535.32 155.01C504.24 158.043 509.157 153.945 501.214 130.584L491.638 130.535C478.849 130.543 465.65 130.712 452.896 130.372C451.794 135.587 446.777 150.507 444.292 155.278C439.418 155.355 420.356 156.417 417.267 153.846C417.729 147.775 457.863 35.2958 462.953 27.3932ZM460.181 108.112L478.21 108.158L494.235 108.142C491.419 99.9218 480.189 63.611 476.883 58.4218C471.391 74.5541 465.184 91.8764 460.181 108.112Z"/><path d="M223.986 123.921C243.353 125.391 225.498 142.686 220.19 148.484C256.846 132.38 297.56 132.27 329.097 159.257C347.104 174.916 358.261 197.013 360.176 220.809C362.147 244.867 354.432 268.717 338.746 287.054C305.425 325.985 247.661 329.426 209.545 295.652C205.97 292.484 198.807 286.452 198.884 281.25C198.984 274.519 207.625 273.381 212.185 277.951C233.449 301.467 265.975 310.417 295.88 299.402C314.712 292.425 329.972 278.195 338.254 259.888C346.794 241.415 347.545 220.28 340.339 201.247C333.434 182.688 319.435 167.641 301.43 159.423C274.54 147.216 249.397 152.402 223.1 162.318C225.711 164.5 246.372 177.324 227.823 182.429C224.984 183.211 200.481 163.149 197.224 159.785C196.868 159.418 195.083 156.908 195.535 156.172C198.542 148.915 218.583 128.133 223.986 123.921Z"/><path d="M1095.82 65.0401C1121.39 60.0504 1146.13 76.8441 1150.95 102.462C1155.77 128.08 1138.83 152.729 1113.2 157.387C1087.8 162.003 1063.44 145.237 1058.66 119.852C1053.89 94.4675 1070.48 69.9843 1095.82 65.0401ZM1109.49 135.437C1134.43 127.408 1129.39 82.922 1101.27 86.2883C1073.22 95.5818 1082.09 141.178 1109.49 135.437Z"/><path d="M886.888 65.5588C922.951 59.8635 938.728 81.4209 935.272 113.896C934.712 119.166 936.484 151.709 934.119 154.405C930.204 156.583 917.127 155.709 912.303 155.544C911.103 151.944 910.787 149.554 910.532 145.839C896.512 159.173 878.084 161.421 862.178 150.027C857.246 145.199 853.661 138.371 853.77 131.333C854.221 101.982 887.451 101.344 908.917 101.173C908.421 75.812 881.851 86.0632 868.155 93.4615C863.912 89.042 860.578 83.2205 857.742 77.8289C865.008 70.2525 876.9 67.1385 886.888 65.5588ZM889.524 138.676C898.333 138.3 904.475 136.137 908.782 128.056L908.787 116.788L899.368 116.908C896.908 117.049 893.858 117.103 891.493 117.626C877.547 120.709 872.151 135.296 889.524 138.676Z"/><path d="M709.446 65.5553C712.226 65.2906 715.017 65.1491 717.81 65.1314C748.447 64.7683 758.91 81.376 757.031 109.901C756.684 115.173 758.263 152.059 755.989 154.374C751.368 156.517 739.611 155.59 734.192 155.295C733.431 152.596 732.906 149.184 732.398 146.376C726.616 152.32 718.94 156.053 710.698 156.93C699.884 158.138 692.101 156.096 683.641 149.31C679.002 144.731 676.35 138.509 676.257 131.989C675.7 101.883 709.748 101.35 731.316 101.173C731.066 75.9036 704.008 85.8888 690.53 93.4306C688.188 91.0932 681.725 82.0054 681.523 79.2399C680.935 71.2254 704.296 66.3368 709.446 65.5553ZM709.644 138.377C719.402 139.075 726.007 136.778 731.013 128.161C731.072 124.432 731.191 120.547 731.181 116.834L724.23 116.927C717.992 117.274 708.056 117.293 703.988 122.448C698.493 129.412 702.622 135.674 709.644 138.377Z"/><path d="M551.233 39.6184C581.696 39.6879 576.004 36.2081 576.174 66.752C583.155 66.6358 606.476 60.4161 596.697 85.6868C595.638 88.4233 580.674 86.9677 576.149 86.9413C576.384 100.096 575.079 116.106 577.03 129.071C578.487 138.756 589.356 135.074 595.957 133.205C597.487 138.08 599.75 145.453 599.978 150.51C589.297 158.769 567.612 160.095 557.558 150.159C547.806 140.521 549.334 124.056 549.376 111.403L549.485 87.1485C545.4 86.7861 538.451 88.182 535.697 85.852C534.725 82.9024 533.572 70.036 536.061 67.6127C537.833 65.8882 546.74 66.6874 549.54 66.977C549.415 60.8736 548.192 43.824 551.233 39.6184Z"/><path d="M800.851 65.5146C813.229 64.5057 827.221 66.085 837.959 72.773C843.389 76.1549 833.359 88.6351 830.624 91.8949C822.249 87.9297 816.313 83.7281 806.257 84.8579C803.128 85.2095 797.079 88.719 797.913 91.7216C800.192 99.9192 816.575 100.93 823.304 104.299C827.389 106.344 830.418 107.03 833.949 110.238C844.763 118.563 844.776 135.07 836.355 145.169C829.719 153.128 820.566 156.048 810.461 157.02C794.028 157.406 783.018 155.843 769.896 145.124C771.549 140.348 777.399 132.439 780.94 128.784C789.972 134.157 797.716 138.922 808.841 137.467C812.604 136.975 818.42 133.455 817.731 129.134C810.775 118.996 776.08 121.084 773.641 98.5032C771.492 78.6115 782.632 68.5919 800.851 65.5146Z"/><path d="M1191.5 65.4878C1200.22 64.9617 1225.98 66.3812 1229.41 75.6414C1229.47 79.7556 1222.67 88.7117 1219.83 91.7004C1211.98 87.5962 1200.18 81.292 1191.09 86.7045C1189.23 87.8074 1187.6 89.2285 1187.11 91.4348C1187.9 100.238 1216.6 102.033 1224.62 111.025C1235.27 122.964 1234.7 134.177 1224.76 146.485C1218.76 153.923 1206.19 156.768 1197.38 157.063C1185.55 157.102 1171.34 155.194 1162.01 147.185C1157.5 143.313 1168.1 131.124 1171.17 128.655C1179.92 134.144 1187.82 138.948 1198.68 137.366C1203.11 136.721 1212.03 131.529 1205.7 127.086C1196.22 120.424 1184.93 120.967 1174.98 114.363C1161.84 105.652 1160.05 91.7543 1168.19 78.7102C1173.57 70.2927 1182.12 67.338 1191.5 65.4878Z"/><path d="M107.386 233.492C115.292 232.904 140.899 232.044 147.213 234.818C150.791 236.39 153.24 240.308 154.601 243.816C157.182 250.472 157.627 283.823 154.61 290.494C152.389 295.406 148.42 298.002 143.548 299.868C136.414 300.947 111.376 301.327 105.328 299.049C101.505 297.608 98.4905 294.89 96.8346 291.131C93.96 284.604 93.869 249.994 96.4071 243.587C98.5255 238.24 102.286 235.695 107.386 233.492Z"/><path d="M267.089 175.996C276.914 175.656 276.089 179.102 276.611 187.509C284.282 188.895 297.299 194.22 298.227 203.075C298.426 204.898 297.881 206.723 296.717 208.138C295.324 209.882 293.273 210.974 291.049 211.156C285.51 211.65 282.161 205.868 278.503 203.043C272.663 198.533 262.18 200.606 257.867 206.404C256.897 207.708 255.128 210.408 255.754 211.967C261.045 225.141 282.859 221.67 292.633 230.787C297.039 234.331 301.066 239.346 301.579 245.385C302.99 261.973 290.914 271.528 276.179 273.275C276.619 281.038 277.272 285.656 267.83 285.889C261.861 282.898 262.947 279.639 263.111 273.691C253.591 272.037 242.578 267.757 238.766 257.936C237.534 254.131 239.441 248.901 243.631 247.943C251.035 246.248 254.45 255.572 259.382 258.488C265.68 262.212 279.287 260.673 283.075 253.644C286.572 247.155 283.134 243.431 277.193 240.745C264.051 235.606 244.573 234.678 240.009 218.336C237.97 211.032 240.201 201.365 245.891 196.01C251.273 190.944 256.007 189.164 262.926 187.433C262.916 181.942 262.156 179.142 267.089 175.996Z"/><path d="M658.237 65.4417C661.423 65.1439 669.871 64.4547 669.888 69.3845C669.906 74.703 670.964 83.5155 668.908 88.3595C668.091 90.2854 658.708 89.5022 656.739 90.051C638.2 93.1164 639.801 108.404 639.916 122.367L640.147 144.104C640.177 146.889 640.553 152.097 638.878 154.291C634.649 156.437 619.671 155.622 614.382 155.398C612.67 151.764 613.117 73.6022 614.154 67.654C616.538 66.1322 621.933 66.5587 624.807 66.5194C639.421 66.3194 639.227 65.869 639.147 79.8789C639.314 79.5715 639.488 79.2678 639.668 78.9683C644.833 70.4229 648.891 67.7148 658.237 65.4417Z"/></svg>