<?xml version="1.0" encoding="utf-8" ?><svg xmlns="http://www.w3.org/2000/svg" xmlns:xlink="http://www.w3.org/1999/xlink" width="1250" height="333" viewBox="0 0 1250 333"><clipPath id="cl_4"><rect x="0.0012435913" y="4.5776367e-05" width="1249.7455" height="332.89246"/></clipPath><g clip-path="url(#cl_4)"><path transform="matrix(0.699354 0 0 0.699354 -46.8555 -172.041)" d="M443.641 472.193C471.39 469.555 499.676 482.721 517.451 503.757C529.346 517.835 533.876 530.783 537.665 548.564C552.98 551.45 565.971 557.95 577.081 568.98C591.819 583.451 600.108 603.25 600.076 623.908C600.128 644.8 591.795 664.839 576.945 679.532C567.234 689.091 555.092 695.807 541.836 698.954C531.514 701.338 515.843 700.597 504.659 700.563L459.207 700.382L405.748 700.423C394.77 700.458 380.319 701.101 369.857 699.478C362.176 698.276 354.727 695.895 347.772 692.42C328.114 682.483 313.217 665.132 306.367 644.194C299.653 623.687 301.375 601.35 311.154 582.116C323.346 558.108 340.391 547.534 364.882 539.628C375.645 501.188 403.264 475.793 443.641 472.193ZM457.688 678.192L501.129 678.219C511.54 678.229 527.82 679.028 537.335 676.585C546.711 674.151 555.252 669.221 562.05 662.319C571.729 652.595 577.92 637.654 577.76 623.946C577.563 609.239 571.554 595.209 561.048 584.92C555.027 579.156 547.746 574.875 539.784 572.415C536.391 571.383 518.99 569.584 518.359 567.798C514.766 557.627 515.206 547.378 511.353 536.478C503.537 514.368 471.494 490.321 447.01 494.679C427.93 496.569 411.774 503.664 399.452 518.894C394.208 525.502 390.189 532.996 387.584 541.02C386.143 545.367 385.221 556.871 382.792 558.679C379.423 561.188 368.108 562.304 362.647 564.314C337.704 573.676 322.254 598.733 325.086 625.23C326.84 641.188 334.932 655.77 347.543 665.701C354.764 671.269 363.188 675.07 372.14 676.802C382.2 678.832 396.907 678.254 407.52 678.246L457.688 678.192Z"/><path transform="matrix(0.699354 0 0 0.699354 -46.8555 -172.041)" d="M100.071 449.548C109.032 448.835 122.725 449.206 131.984 449.196L187.904 449.184C202.738 449.193 220.206 446.46 230.541 457.058C234.097 460.683 236.547 465.244 237.607 470.21C241.193 487.768 237.195 530.485 238.526 549.91C241.676 595.87 187.339 569.581 168.041 586.655C157.871 595.653 161.201 629.975 161.272 644.22C161.176 657.126 164.009 675.178 158.807 687.063C156.547 692.227 152.703 696.557 147.341 698.553C138.142 701.98 100.396 701.722 91.7638 697.512C86.5357 694.962 82.3986 690.727 80.5216 685.173C77.1883 675.308 78.973 588.567 78.9757 572.095L78.9848 510.588C78.9897 499.315 79.005 488.074 79.1827 476.804C79.4132 462.176 86.3279 454.068 100.071 449.548Z"/><path transform="matrix(0.699354 0 0 0.699354 -46.8555 -172.041)" d="M725.279 517.543C775.713 512.43 820.691 549.305 825.579 599.774C830.468 650.242 793.404 695.068 742.926 699.734C692.764 704.372 648.289 667.58 643.431 617.426C638.573 567.272 675.159 522.624 725.279 517.543ZM740.422 664.427C805.42 653.993 795.32 546.388 728.537 553.104C664.127 562.418 671.698 669.794 740.422 664.427Z"/><path transform="matrix(0.699354 0 0 0.699354 -46.8555 -172.041)" d="M105.415 262.137L172.266 262.292C186.501 262.279 212.269 260.225 225.715 265.995C229.908 267.794 237.345 278.48 237.725 283.429C238.983 299.822 238.511 316.927 238.524 333.499L238.523 371.222C238.504 392.09 241.435 413.544 214.517 417.781C180.06 418.515 145.352 417.502 110.865 417.96C98.4493 419.507 79.5751 411.364 79.4737 396.148C79.2312 359.755 78.0658 321.06 79.7304 284.628C80.3161 271.808 93.0458 263.36 105.415 262.137Z"/><path transform="matrix(0.699354 0 0 0.699354 -46.8555 -172.041)" d="M294.203 262.148C319.499 261.699 344.536 262.54 370.601 262.318C400.323 262.065 421.21 259.924 420.38 298.447C419.973 330.575 421.022 362.88 419.967 394.975C419.567 407.144 408.51 414.653 398.013 417.766C364.15 419.358 327.854 417.211 293.827 417.661C283.119 417.803 269.811 407.737 269.236 396.533C267.657 365.717 269.014 334.281 268.576 303.375C268.193 283.211 269.876 265.182 294.203 262.148Z"/><path transform="matrix(0.699354 0 0 0.699354 -46.8555 -172.041)" d="M710.669 298.941C716.842 298.874 727.157 297.29 732.337 300.728C734.783 302.35 785.531 444.372 788.199 457.786C787.752 458.462 786.835 459.394 786.033 459.516C746.64 465.468 750.349 457.568 741.815 429.89C733.634 429.019 725.066 429.2 716.812 429.21C706.157 429.044 695.45 429.439 684.794 429.738C678.742 446.914 680.368 464.343 657.646 460.908C652.431 460.119 643.802 462.235 639.256 458.551C639.678 455.149 640.735 450.713 641.853 447.419C657.37 401.717 673.744 356.304 688.952 310.496C690.002 307.333 691.16 303.779 693.022 301.035C697.588 297.913 704.938 298.859 710.669 298.941ZM693.426 399.855L712.313 399.823L732.354 399.762C728.126 386.198 723.758 372.679 719.248 359.206C717.633 354.294 714.107 344.488 712.985 339.823C706.04 359.385 700.368 380.851 693.426 399.855Z"/><path transform="matrix(0.699354 0 0 0.699354 -46.8555 -172.041)" d="M918.197 346.13C920.457 346.051 922.719 346.048 924.978 346.12C937.64 346.553 943.776 351.954 951.761 360.543C952.03 347.672 954.119 348.777 966.171 348.729C971.162 348.71 978.837 347.737 982.788 350.81C986.569 360.205 982.692 422.144 983.975 437.803C984.622 445.694 984.654 489.45 983.264 496.167C980.497 499.628 974.318 498.493 969.785 498.626C956.609 499.013 950.853 502.591 950.894 487.105C951.14 474.869 950.934 461.906 950.946 449.61C927.113 475.248 889.407 463.933 878.417 432.42C866.975 399.612 876.882 350.394 918.197 346.13ZM931.702 436.509C957.158 431.5 951.178 407.441 950.768 386.918C945.17 377.322 939.155 373.024 927.799 373.648C920.799 375.616 916.171 377.979 912.669 384.703C904 401.348 906.697 437.071 931.702 436.509Z"/><path transform="matrix(0.699354 0 0 0.699354 -46.8555 -172.041)" d="M1321.94 570.358C1324.52 570.192 1327.1 570.067 1329.69 569.983C1365.91 568.945 1388.26 596.014 1388.19 630.692C1388.18 636.225 1387.64 642.78 1380.7 643.075C1371.67 643.458 1362.66 643.249 1353.62 643.207C1337.37 643.098 1321.12 643.126 1304.87 643.289C1311.33 669.808 1330.15 675.546 1355.31 666.889C1360.12 665.233 1365.48 659.972 1370.58 660.384C1373.15 661.391 1373.74 662.775 1375.34 665.082C1378.01 669.172 1386.36 678.205 1382.68 682.897C1376.55 690.706 1360.98 696.186 1351.65 697.809C1332.77 701.094 1311.31 699.693 1295.24 688.445C1255.9 661.21 1261.44 588.493 1309.14 573.226C1313.58 571.805 1317.4 571.114 1321.94 570.358ZM1305.53 620.847C1314.67 620.831 1324.45 620.631 1333.53 620.822C1340.16 620.749 1347 620.758 1353.61 620.458C1351.02 603.514 1343.88 596.228 1326.2 597.327C1312.65 600.662 1308.44 607.679 1305.53 620.847Z"/><path transform="matrix(0.699354 0 0 0.699354 -46.8555 -172.041)" d="M1330.62 346.618C1362.74 343.542 1391.28 367.094 1394.37 399.229C1397.46 431.364 1373.92 459.92 1341.8 463.02C1309.65 466.121 1281.09 442.565 1278 410.413C1274.91 378.261 1298.47 349.695 1330.62 346.618ZM1341.28 436.441C1360.18 431.01 1361.89 407.468 1357.66 391.208C1354.18 377.851 1345.03 372.268 1331.55 373.748C1326.73 375.498 1323.55 376.673 1320.24 380.721C1306.09 398.017 1311.65 441.828 1341.28 436.441Z"/><path transform="matrix(0.699354 0 0 0.699354 -46.8555 -172.041)" d="M914.247 570.367C970.246 566.514 966.793 610.908 965.792 652.049C965.57 661.157 967.77 689.059 963.577 695.002C959.659 697.293 955.776 696.418 951.71 696.455C926.891 696.728 928.326 697.658 928.634 673.154C928.175 655.508 930.065 636.706 928.333 619.198C926.381 599.46 907.243 597.361 893.2 606.304L892.364 606.841C890.045 609.198 887.845 611.808 886.729 614.961C881.003 631.142 888.977 684.717 883.548 693.745C882.713 695.134 881.365 695.806 879.781 696.125C876.091 696.868 852.97 696.788 850.269 695.148C847.088 691.207 848.299 682.29 848.296 677.02L848.266 645.286C848.257 635.737 846.686 579.862 850.745 574.989C856.81 572.453 864.255 573.5 870.629 573.28C884.811 572.791 884.225 575.834 883.984 588.186C893.152 578.468 900.975 572.781 914.247 570.367Z"/><path transform="matrix(0.699354 0 0 0.699354 -46.8555 -172.041)" d="M1197.77 570.309C1255.73 565.852 1249.1 614.597 1248.79 654.734C1248.73 662.093 1250.23 689.55 1247.02 694.672C1241.88 697.812 1234.53 695.687 1228.85 696.232C1208.66 698.162 1212.68 691.15 1212.35 675.849C1211.95 657.32 1213.65 637.353 1212.01 619.062C1210.29 599.792 1189.77 596.538 1175.95 607.742L1175.21 608.345C1162.3 623.525 1172.8 671.728 1168.41 692.238C1168.17 693.329 1166.08 695.941 1164.85 695.83C1157.81 695.187 1135.12 700.484 1133.25 691.453C1132.41 655.945 1132.96 620.611 1132.82 585.022C1132.76 569.276 1140.04 574.48 1152.02 573.701C1165.32 572.835 1168.46 571.7 1168.55 586.94C1179.13 576.98 1183.71 573.524 1197.77 570.309Z"/><path transform="matrix(0.699354 0 0 0.699354 -46.8555 -172.041)" d="M1004.67 348.822C1010.37 348.749 1032.24 347.904 1033.41 350.164C1038.86 360.729 1033.31 406.52 1035.72 419.356C1038.34 433.319 1045.87 435.708 1055.37 434.899C1088.31 432.094 1064.62 364.549 1074.9 350.386C1078.67 347.686 1101.79 347.81 1105.24 350.871C1107.5 355.819 1106.57 383.709 1106.52 391.221C1106.51 400.834 1107.29 451.884 1105.57 458.183C1103.76 460.04 1102.24 461.027 1099.38 460.689C1084.19 458.896 1075.61 467.682 1074.74 447.441C1065.6 456.123 1058.31 461.951 1044.93 463.141C1030.63 464.414 1014.76 459.503 1007.35 446.196C1004.29 440.701 1002.29 429.978 1002.06 423.671C1001.65 409.529 1001.74 395.408 1001.7 381.249C1001.67 371.944 1001.37 362.254 1002.27 352.997C1002.42 351.47 1003.68 349.938 1004.67 348.822Z"/><path transform="matrix(0.699354 0 0 0.699354 -46.8555 -172.041)" d="M208.232 610.718C221.068 610.09 254.01 608.948 265.148 613.27C281.864 619.755 274.028 658.745 275.956 673.214C277.548 685.16 270.804 697.021 258.031 700.096C182.195 703.355 190.386 699.749 191.256 630.647C191.394 619.675 199.059 613.147 208.232 610.718Z"/><path transform="matrix(0.699354 0 0 0.699354 -46.8555 -172.041)" d="M996.5 520.717C1005.76 520.531 1019.21 519.429 1028.25 521.708C1031.64 522.563 1030.94 536.111 1030.94 539.714L1030.97 622.15C1030.97 633.569 1030.88 645.309 1030.66 656.545C1030.41 670.191 1043.17 663.861 1047.61 669.235C1049.77 671.836 1048.87 688.634 1048.35 692.333C1048 694.869 1045.83 696.013 1043.75 697.216C1041.54 697.625 1039.32 697.983 1037.09 698.29C1017.75 700.98 996.564 695.681 993.922 672.55C992.894 663.553 993.46 653.103 993.464 643.938L993.513 594.984L993.561 550.231C993.574 543.089 992.254 525.897 996.5 520.717Z"/><path transform="matrix(0.699354 0 0 0.699354 -46.8555 -172.041)" d="M1439.8 346.126C1452.34 344.685 1471.99 349.073 1482.07 357.015C1482.83 357.658 1484.3 359.911 1483.96 361.045C1482.23 366.893 1477.45 374.163 1473.25 378.49C1470.41 381.428 1458.53 373.68 1454.85 372.78C1450.27 371.658 1441.72 369.394 1437.67 372.522C1425.67 381.774 1438.27 388.33 1447.21 390.535C1462.56 394.916 1483.04 401.185 1486.32 419.34C1491.15 450.146 1469.87 463.161 1442.42 463.593C1428.79 462.91 1413.91 460.302 1402.8 451.485C1394.47 444.876 1410.12 427.118 1412.36 427.87C1423.04 431.458 1429.22 438.601 1442.17 438.938C1454.3 439.963 1463.4 427.092 1448.7 421.083C1430.94 413.823 1405.51 411.477 1402.39 387.84C1399.02 362.323 1416.03 348.788 1439.8 346.126Z"/><path transform="matrix(0.699354 0 0 0.699354 -46.8555 -172.041)" d="M1172.65 348.877C1179.27 348.712 1196.55 347.826 1201.84 349.894C1206.34 354.848 1222.23 412.896 1225.84 423.871C1228.58 414.635 1245.42 354.567 1248.67 350.492C1253.88 348.083 1276.39 347.03 1280.01 351.497C1280.5 356.671 1273.87 372.107 1271.72 378.295C1262.64 402.921 1254.08 427.757 1245.12 452.443C1240.86 464.173 1237.37 459.96 1226.35 460.604C1221.43 460.892 1213.17 461.44 1208.81 459.394C1204.37 454.468 1174.69 366.944 1170.35 354.211C1169.79 352.573 1171.62 350.279 1172.65 348.877Z"/><path transform="matrix(0.699354 0 0 0.699354 -46.8555 -172.041)" d="M855.851 346.719C873.784 345.103 869.596 351.577 870.446 364.839C871.968 383.108 862.134 375.415 850.238 378.755C841.752 381.138 837.167 385.28 834.614 393.572C831.382 404.071 836.831 454.317 831.458 459.204C825.444 461.752 809.249 460.904 802.502 460.275C801.225 458.535 800.507 457.119 800.489 454.899C800.226 422.298 800.091 389.647 800.468 357.049C800.492 354.991 800.633 351.952 801.971 350.336C806.557 347.903 811.48 348.634 816.409 348.587C832.558 348.432 832.126 348.484 832.621 363.621C832.924 363.087 833.245 362.564 833.584 362.052C839.152 353.611 846.031 348.807 855.851 346.719Z"/><path transform="matrix(0.699354 0 0 0.699354 -46.8555 -172.041)" d="M1070.54 573.951C1076.5 573.438 1098.52 572.775 1103.13 575.19C1104.73 579.935 1104.75 585.905 1104.76 590.923L1104.81 661.826C1104.82 671.507 1104.96 682.241 1104.61 691.959C1104.56 693.238 1102.2 695.472 1101.21 696.46C1094.58 696.349 1073.4 697.239 1068.95 694.774C1065.32 683.448 1068.32 604.163 1067.3 586.68C1066.95 580.714 1066.58 577.911 1070.54 573.951Z"/><path transform="matrix(0.699354 0 0 0.699354 -46.8555 -172.041)" d="M1129.01 348.881C1135.04 348.54 1153.39 347.92 1158.13 350.358C1162.16 357.85 1158.11 440.974 1159.32 454.889C1159.48 456.726 1158.16 458.96 1157.01 460.426C1150.6 460.584 1132.58 461.893 1127.64 459.029C1127 457.496 1126.64 455.791 1126.63 454.118C1126.29 420.679 1126.03 387.118 1126.65 353.683C1126.69 351.799 1127.84 350.256 1129.01 348.881Z"/><path transform="matrix(0.699354 0 0 0.699354 -46.8555 -172.041)" d="M1083.34 518.551C1094.34 517.103 1104.47 524.728 1106.13 535.699C1107.78 546.671 1100.35 556.949 1089.42 558.814C1082.16 560.052 1074.8 557.271 1070.17 551.541C1065.54 545.812 1064.36 538.027 1067.09 531.186C1069.82 524.344 1076.04 519.512 1083.34 518.551Z"/><path transform="matrix(0.699354 0 0 0.699354 -46.8555 -172.041)" d="M1137.82 298.079C1144.34 296.11 1151.42 297.822 1156.32 302.554C1161.22 307.287 1163.18 314.3 1161.45 320.889C1159.71 327.477 1154.55 332.612 1147.95 334.311C1138.03 336.865 1127.9 331.019 1125.14 321.157C1122.39 311.294 1128.02 301.038 1137.82 298.079Z"/></g></svg>