<?xml version="1.0" encoding="UTF-8"?><svg xmlns="http://www.w3.org/2000/svg" viewBox="0 0 188.77 228.41"><defs><style>.d{fill:#00a6d0;}.e{fill:#044e64;}.f{fill:#fff;}.g{fill:#80abba;}.h{fill:#a0c9d4;}.i{fill:#177f6e;}.j{fill:#44778b;}.k{fill:#88c27a;}.l{fill:#24a18e;}.m{fill:#6190a1;}</style></defs><g id="a"/><g id="b"><g id="c"><g><g><polygon class="k" points="138.37 62.26 119.43 76.89 116.82 62.26 99.74 75.45 97.38 62.26 77.79 77.39 77.79 125.41 97.23 125.41 100.09 125.41 118.78 125.41 119.52 125.41 141.08 125.41 141.08 77.39 138.37 62.26"/><polygon class="i" points="97.61 112.12 94.81 112.12 90.76 67.38 77.79 77.39 77.79 125.41 97.23 125.41 97.61 125.41 97.61 112.12"/><rect class="k" x="54.98" y="99.62" width="15.65" height="40.64" transform="translate(182.75 57.14) rotate(90)"/><rect class="k" x="57.03" y="27.11" width="11.55" height="28.78" transform="translate(104.31 -21.3) rotate(90)"/><polygon class="k" points="74.44 47.28 62.63 47.28 60.86 47.28 51.17 47.28 45.29 112.12 60.86 112.12 62.63 112.12 80.33 112.12 74.44 47.28"/><path class="e" d="M138.37,62.26l2.7,15.13v48.02h-63.29v-48.02l19.59-15.13,2.36,13.19,17.08-13.19,2.61,14.63,18.94-14.63m0-4.16c-1.08,0-2.14,.34-2.98,.99l-12.73,9.83-1.31-7.33c-.27-1.48-1.39-2.72-2.95-3.24-.52-.17-1.05-.26-1.58-.26-1.08,0-2.14,.34-2.98,.99l-10.87,8.39-1.05-5.89c-.27-1.48-1.39-2.72-2.95-3.24-.52-.17-1.05-.26-1.58-.26-1.08,0-2.14,.34-2.98,.99l-19.59,15.13c-1.02,.79-1.61,1.95-1.61,3.17v48.02c0,2.3,2.06,4.16,4.59,4.16h63.29c2.54,0,4.59-1.86,4.59-4.16v-48.02c0-.22-.02-.44-.06-.66l-2.7-15.13c-.27-1.48-1.39-2.72-2.95-3.24-.52-.17-1.05-.26-1.58-.26h0Z"/><rect class="f" x="117.33" y="89.26" width="12.77" height="22.86"/><polygon class="l" points="74.44 47.28 77.2 47.28 77.2 35.73 62.45 35.73 62.45 127.76 83.12 127.76 83.12 112.12 80.33 112.12 74.44 47.28"/><path class="e" d="M83.12,129.69H42.49c-1.17,0-2.12-.86-2.12-1.92v-15.65c0-1.06,.95-1.92,2.12-1.92h40.64c1.17,0,2.12,.86,2.12,1.92v15.65c0,1.06-.95,1.92-2.12,1.92Zm-38.52-3.84h36.4v-11.8H44.61v11.8Z"/><path class="e" d="M77.2,49.2h-28.78c-1.17,0-2.12-.86-2.12-1.92v-11.55c0-1.06,.95-1.92,2.12-1.92h28.78c1.17,0,2.12,.86,2.12,1.92v11.55c0,1.06-.95,1.92-2.12,1.92Zm-26.66-3.84h24.54v-7.71h-24.54v7.71Z"/><path class="e" d="M80.33,114.04H45.29c-.59,0-1.16-.22-1.56-.62-.4-.39-.6-.92-.55-1.46l5.88-64.84c.09-1,1.01-1.76,2.11-1.76h23.28c1.1,0,2.02,.77,2.11,1.76l5.88,64.84c.05,.53-.15,1.06-.55,1.46-.4,.39-.97,.62-1.56,.62Zm-32.74-3.84h30.44l-5.53-61h-19.37l-5.53,61Z"/><rect class="f" x="94.9" y="89.26" width="12.77" height="22.86"/><polygon class="d" points="117.33 112.12 130.1 89.26 117.33 89.26 117.33 112.12"/><polygon class="d" points="94.9 112.12 107.67 89.26 94.9 89.26 94.9 112.12"/><path class="e" d="M130.1,114.04h-12.77c-1.17,0-2.12-.86-2.12-1.92v-22.86c0-1.06,.95-1.92,2.12-1.92h12.77c1.17,0,2.12,.86,2.12,1.92v22.86c0,1.06-.95,1.92-2.12,1.92Zm-10.65-3.84h8.52v-19.02h-8.52v19.02Z"/><path class="e" d="M107.67,114.04h-12.77c-1.17,0-2.12-.86-2.12-1.92v-22.86c0-1.06,.95-1.92,2.12-1.92h12.77c1.17,0,2.12,.86,2.12,1.92v22.86c0,1.06-.95,1.92-2.12,1.92Zm-10.65-3.84h8.52v-19.02h-8.52v19.02Z"/><g><path class="d" d="M126.12,1.29c-8.57,0-15.76,5.8-17.61,13.54-2.54-1.59-5.55-2.52-8.79-2.52-1.18,0-2.33,.13-3.44,.36-.08-7-5.99-12.68-13.25-12.68-4.83,0-9.05,2.52-11.37,6.26-2.18-1.39-4.78-2.2-7.58-2.2-7.63,0-13.83,6-13.83,13.38s6.21,13.38,13.83,13.38c5.24,0,9.81-2.83,12.15-6.99,1.99,1.15,4.31,1.83,6.79,1.83,.23,0,.44-.02,.67-.03-.13,.78-.21,1.58-.21,2.4,0,8.66,7.28,15.7,16.23,15.7,7.26,0,13.42-4.63,15.49-11,3.04,2.23,6.82,3.55,10.91,3.55,9.97,0,18.08-7.84,18.08-17.49S136.09,1.29,126.12,1.29Zm0,30.26c-4.39,0-8.28-2.08-10.68-5.27-.94-1.37-4.35-1.44-4.39,1.13,.01,.2,.03,.4,.03,.61,0,6.07-5.09,10.99-11.36,10.99s-11.36-4.92-11.36-10.99c0-1.55,.33-3.02,.93-4.35,.44-2.43-.66-3.79-3.01-3.36-1,.4-2.09,.63-3.24,.63-2.68,0-5.06-1.22-6.6-3.11-.89-1.38-3.46-.51-3.51,1-.69,4.12-4.38,7.27-8.84,7.27-4.95,0-8.96-3.88-8.96-8.67s4.01-8.67,8.96-8.67c2.8,0,5.3,1.24,6.94,3.19,1.09,1.65,3.73,.61,3.78-.77,.78-3.7,4.17-6.48,8.22-6.48,4.63,0,8.39,3.63,8.39,8.11,0,1.11-.23,2.16-.64,3.12-.41,2.8,1.26,3.14,3.13,2.65,1.7-.99,3.69-1.56,5.82-1.56,3.84,0,7.22,1.84,9.28,4.66,1.53,1.95,4.6,.75,3.96-1.88-.03-.34-.05-.68-.05-1.02,0-7.06,5.92-12.78,13.21-12.78s13.21,5.72,13.21,12.78-5.92,12.78-13.21,12.78Z"/><path class="j" d="M69.48,16.89c-.27-.23-.68-.34-1.23-.34h-2.92v-2.65c0-.51-.12-.88-.37-1.12-.25-.24-.57-.36-.97-.36s-.73,.12-.98,.37c-.25,.25-.37,.62-.37,1.12v2.65h-2.92c-.55,0-.96,.11-1.23,.34-.27,.23-.41,.52-.41,.88s.14,.65,.42,.88c.28,.23,.69,.34,1.22,.34h2.92v2.65c0,.5,.12,.87,.37,1.12,.25,.25,.58,.37,.98,.37s.72-.13,.97-.38c.25-.25,.37-.62,.37-1.11v-2.65h2.92c.56,0,.97-.11,1.24-.34,.27-.23,.4-.52,.4-.88s-.14-.66-.41-.88Z"/><g><path class="g" d="M94.08,26.08c-.54-.49-.79-1.02-.74-1.59,.04-.57,.3-1.08,.78-1.51s1.01-.64,1.64-.67c.63-.03,1.21,.19,1.74,.67,.42,.38,.63,.9,.62,1.55,0,.65-.22,1.17-.65,1.55-.46,.42-1.03,.62-1.7,.62s-1.24-.22-1.69-.63Zm10.72,6.58c-.47,.43-1.03,.65-1.67,.69-.64,.03-1.24-.2-1.78-.69-.46-.42-.7-.93-.7-1.52,0-.6,.23-1.11,.7-1.54s1.05-.65,1.72-.66,1.23,.2,1.7,.63c.54,.49,.79,1.02,.76,1.6s-.27,1.08-.73,1.49Z"/><path class="g" d="M93.82,32.92h0c-.65-.59-.68-1.52-.07-2.08l9.48-8.59c.61-.55,1.64-.52,2.29,.07h0c.65,.59,.68,1.52,.07,2.08l-9.48,8.59c-.61,.55-1.64,.52-2.29-.07Z"/></g><path class="m" d="M87.81,12.04h-2.7l1.35-2.11c.31-.49,.13-1.13-.42-1.41-.54-.28-1.24-.11-1.56,.38l-1.35,2.11-1.35-2.11c-.31-.49-1.01-.66-1.56-.38-.54,.28-.73,.92-.42,1.41l1.35,2.11h-2.7c-.63,0-1.14,.46-1.14,1.03s.51,1.03,1.14,1.03h2.7l-1.35,2.11c-.31,.49-.13,1.13,.42,1.41,.54,.28,1.24,.11,1.56-.38l1.35-2.11,1.35,2.11c.31,.49,1.01,.66,1.56,.38,.54-.28,.73-.92,.42-1.41l-1.35-2.11h2.7c.63,0,1.14-.46,1.14-1.03s-.51-1.03-1.14-1.03Z"/><g><rect class="h" x="118.55" y="13.75" width="15.66" height="3.6" rx="1.39" ry="1.39"/><rect class="h" x="118.55" y="20.06" width="15.66" height="3.6" rx="1.39" ry="1.39"/></g></g></g><g><path class="i" d="M8.97,177.57H1.77v-28.85H18.25c.15,.87,.2,1.79,.2,2.43,0,2.16-.86,2.76-3.65,2.71l-5.83-.05v7.4h8.07c.2,1.01,.25,1.93,.25,2.57,0,2.25-1.01,2.66-3.65,2.62l-4.67-.09v11.26Z"/><path class="i" d="M34.68,178.03c-1.98,0-2.84-.6-3.14-2.66-1.32,1.47-3.35,2.66-6.34,2.66-3.75,0-6.04-2.66-6.04-6.66,0-5.47,3.5-7.26,11.82-7.72,0-3.63-.25-4.55-2.99-4.55-1.93,0-4.21,.78-5.63,.78-1.62,0-2.38-1.1-2.43-4.13,2.18-.92,5.78-1.75,9.54-1.75,5.93,0,8.42,1.88,8.42,7.81v15.8c-.86,.23-2.13,.41-3.2,.41Zm-2.08-34.27c1.37,.74,2.43,1.88,2.43,2.94s-.81,2.02-2.79,3.12c-.71,.46-4.31,2.25-5.48,2.66l-2.49-2.07,8.32-6.66Zm-4.97,29.36c1.27,0,2.38-.46,3.35-1.24v-4.64c-1.27,.09-3.75,.32-4.97,.69-.36,.69-.51,1.61-.51,2.48,0,1.7,.71,2.71,2.13,2.71Z"/><path class="i" d="M49.49,156.26c.56-.51,3.04-2.25,6.14-2.25,4.46,0,7.56,2.71,7.56,11.95,0,7.58-3.55,12.08-8.62,12.08-2.79,0-4.92-1.56-5.53-2.34-.96,1.93-1.98,2.34-4.11,2.34-.71,0-1.78-.09-2.28-.23v-30.96c.61-.18,2.03-.55,3.5-.55,2.84,0,3.35,.64,3.35,3.4v6.57Zm3.25,2.85c-1.37,0-2.99,.96-3.2,1.06v11.76c.15,.14,1.62,1.19,3.09,1.19,1.17,0,2.08-.37,2.18-.41,.46-.83,1.06-3.68,1.06-6.48,0-5.42-.86-7.12-3.14-7.12Z"/><path class="i" d="M66.99,154.6c.56-.32,2.23-.6,3.4-.6,2.08,0,2.49,1.01,2.94,3.81,1.22-2.16,3.6-3.81,6.7-3.81,.25,1.1,.36,2.62,.3,3.86-.05,1.61-.3,2.39-1.47,2.39-2.18,0-3.8,.74-4.92,1.75v15.57h-6.95v-22.97Z"/><path class="i" d="M86.82,145.83c2.23,0,3.14,1.01,3.14,3.08,0,1.84-1.27,3.03-4.57,3.03-2.38,0-3.14-1.33-3.14-3.12s1.17-2.99,4.57-2.99Zm-4.26,31.75v-22.56c.91-.37,2.38-.6,3.7-.6,2.69,0,3.25,.69,3.25,3.12v20.03h-6.95Z"/><path class="i" d="M103.56,154c3.45,0,5.53,1.1,5.93,1.38,0,3.03-.76,4.64-2.08,4.64-.86,0-2.03-.78-3.75-.78-.66,0-1.27,.14-1.88,.37-.25,.41-1.27,2.8-1.27,6.48,0,4.73,1.72,6.85,4.41,6.85,1.47,0,2.89-.41,3.85-.87l.76,4.13c-1.27,.83-3.25,1.84-6.49,1.84-6.19,0-9.74-4.18-9.74-11.85s3.5-12.17,10.25-12.17Z"/><path class="i" d="M126.43,178.03c-1.98,0-2.84-.6-3.14-2.66-1.32,1.47-3.35,2.66-6.34,2.66-3.75,0-6.04-2.66-6.04-6.66,0-5.47,3.5-7.26,11.82-7.72,0-3.63-.25-4.55-2.99-4.55-1.93,0-4.21,.78-5.63,.78-1.62,0-2.38-1.1-2.43-4.13,2.18-.92,5.78-1.75,9.54-1.75,5.93,0,8.42,1.88,8.42,7.81v15.8c-.86,.23-2.13,.41-3.2,.41Zm-7.05-4.92c1.27,0,2.38-.46,3.35-1.24v-4.64c-1.27,.09-3.75,.32-4.97,.69-.36,.69-.51,1.61-.51,2.48,0,1.7,.71,2.71,2.13,2.71Z"/><path class="i" d="M151.74,154c2.38,0,4.01,.83,4.87,1.47v-8.68c.86-.28,2.33-.51,3.7-.51,2.69,0,3.2,.51,3.2,3.4v28.07c-.86,.18-2.03,.32-3.3,.28-1.83-.05-2.84-.55-3.3-2.57-.71,.78-2.74,2.57-6.04,2.57-5.12,0-7.66-4.78-7.66-11.99s2.79-12.04,8.52-12.04Zm1.83,18.97c1.27,0,2.43-.6,3.04-1.15v-11.81c-1.17-.83-3.3-1.38-5.17-.83-.56,1.19-.96,3.81-.96,6.89,0,5.28,1.27,6.89,3.09,6.89Z"/><path class="i" d="M177.81,154c6.24,0,8.62,3.54,8.62,10.61,0,1.06,0,2.25-.15,3.54h-11.62c.15,3.12,1.47,4.92,4.26,4.92s4.21-.78,5.17-.78c1.22,0,1.72,1.01,1.67,4.13-1.67,.87-4.36,1.61-8.27,1.61-7.46,0-10.09-5.19-10.09-12.08s3.25-11.95,10.4-11.95Zm-.25,4.82c-1.12,0-1.98,.55-2.13,.6-.15,.51-.81,2.34-.81,4.96l5.53-.32c.15-3.26-.61-5.24-2.59-5.24Z"/><path class="i" d="M16.21,191.39c4.42,0,7.25,1.14,8.07,1.71-.13,4.91-1.58,6.34-2.96,6.34-1.64,0-2.46-.86-5.93-.86-1.39,0-3.09,.4-4.04,.86-1.45,2.51-1.96,6.57-1.96,10.4,0,8.63,3.03,11.26,7.38,11.26,2.14,0,4.29-.51,5.99-1.54l1.51,6.28c-2.4,1.66-5.49,2.57-9.46,2.57-9.78,0-14.82-5.66-14.82-18.91s6.62-18.11,16.21-18.11Z"/><path class="i" d="M45.54,228.41c-2.46,0-3.53-.74-3.91-3.31-1.64,1.83-4.16,3.31-7.88,3.31-4.67,0-7.51-3.31-7.51-8.28,0-6.8,4.35-9.03,14.7-9.6,0-4.51-.32-5.66-3.72-5.66-2.4,0-5.24,.97-7,.97-2.02,0-2.96-1.37-3.03-5.14,2.71-1.14,7.19-2.17,11.86-2.17,7.38,0,10.47,2.34,10.47,9.71v19.65c-1.07,.29-2.65,.51-3.97,.51Zm-2.59-42.62c1.7,.91,3.03,2.34,3.03,3.66s-1.01,2.51-3.47,3.88c-.88,.57-5.36,2.8-6.81,3.31l-3.09-2.57,10.34-8.28Zm-6.18,36.51c1.58,0,2.96-.57,4.16-1.54v-5.77c-1.58,.11-4.67,.4-6.18,.86-.44,.86-.63,2-.63,3.08,0,2.11,.88,3.37,2.65,3.37Z"/><path class="i" d="M55.31,221.21v-31.48c1.14-.4,3.03-.8,4.54-.8,3.41,0,4.1,.86,4.1,4.23v26.91c0,1.6,.88,2.34,2.27,2.34,.95,0,1.96-.29,2.4-.4l.13,5.14c-1.45,.74-3.6,1.26-6.12,1.26-4.48,0-7.32-2.17-7.32-7.2Z"/><path class="i" d="M83.19,198.53c4.29,0,6.88,1.37,7.38,1.71,0,3.77-.95,5.77-2.59,5.77-1.07,0-2.52-.97-4.67-.97-.82,0-1.58,.17-2.33,.46-.32,.51-1.58,3.48-1.58,8.06,0,5.88,2.14,8.51,5.49,8.51,1.83,0,3.6-.51,4.79-1.09l.95,5.14c-1.58,1.03-4.04,2.29-8.07,2.29-7.7,0-12.11-5.2-12.11-14.74s4.35-15.14,12.74-15.14Z"/><path class="i" d="M118.32,227.44c-.88,.4-2.65,.97-4.6,.97-2.27,0-3.03-.51-3.78-3.26-.82,.86-4.04,3.26-8.14,3.26-5.49,0-7.82-3.03-7.82-8.74v-20.4c.82-.11,2.71-.4,4.1-.4,3.41,0,4.54,.46,4.54,3.88v15.48c0,2.51,.69,3.43,2.59,3.43,2.27,0,4.29-1.6,4.54-1.83v-20.8h8.58v28.39Z"/><path class="i" d="M124.38,221.21v-31.48c1.14-.4,3.03-.8,4.54-.8,3.41,0,4.1,.86,4.1,4.23v26.91c0,1.6,.88,2.34,2.27,2.34,.95,0,1.96-.29,2.4-.4l.13,5.14c-1.45,.74-3.6,1.26-6.12,1.26-4.48,0-7.32-2.17-7.32-7.2Z"/><path class="i" d="M165.06,213.61c0,9.03-3.97,14.8-13.88,14.8-7.57,0-11.67-6.17-11.67-15.2,0-6.11,1.64-14.68,13.75-14.68,8.45,0,11.8,5.66,11.8,15.08Zm-12.74,8.8c1.07,0,2.02-.23,2.84-.74,.13-.4,1.32-3.37,1.32-8.23,0-6.46-1.14-8.8-4.04-8.8-1.07,0-2.02,.23-2.96,.63-.44,.91-1.39,3.43-1.39,8.17,0,6.51,1.45,8.97,4.23,8.97Z"/><path class="i" d="M180.51,198.53c2.78,0,5.36,.51,7.25,1.2,.06,.51,.06,1.03,.06,1.54-.06,2.63-1.01,4.29-2.65,4.29-1.14,0-2.71-.8-5.36-.8-1.32,0-2.4,.23-3.09,.46-.25,.4-.38,1.03-.38,1.54,0,1.49,1.2,2.06,5.36,3.49,5.05,1.43,7.06,3.83,7.06,8.34,0,6.17-4.73,9.83-11.86,9.83-3.47,0-6.31-.74-8.2-1.71-.13-.57-.19-1.26-.19-1.94,.19-1.89,.88-3.71,2.21-3.71s2.65,1.14,6.43,1.14c1.64,0,2.71-.23,3.41-.63,.25-.29,.44-1.03,.44-1.71,0-1.6-1.7-2.06-4.92-3.2-5.24-1.89-7.44-4.68-7.44-8.63,0-5.54,4.04-9.48,11.86-9.48Z"/></g></g></g></g></svg>