<?xml version="1.0" encoding="UTF-8"?>
<svg id="Camada_1" data-name="Camada 1" xmlns="http://www.w3.org/2000/svg" viewBox="0 0 284.45 344.18">
  <defs>
    <style>
      .cls-1 {
        fill: #fff;
      }
    </style>
  </defs>
  <g>
    <path class="cls-1" d="M13.51,267.57H2.66v-43.47h24.84c.23,1.31.31,2.7.31,3.67,0,3.25-1.3,4.15-5.5,4.08l-8.79-.07v11.15h12.15c.31,1.52.38,2.91.38,3.88,0,3.39-1.53,4.02-5.5,3.95l-7.03-.14v16.96Z"/>
    <path class="cls-1" d="M52.26,268.26c-2.98,0-4.28-.9-4.74-4.02-1.99,2.22-5.04,4.02-9.55,4.02-5.66,0-9.1-4.02-9.1-10.04,0-8.24,5.27-10.94,17.81-11.63,0-5.47-.38-6.85-4.51-6.85-2.91,0-6.34,1.18-8.48,1.18-2.45,0-3.59-1.66-3.67-6.23,3.29-1.38,8.71-2.63,14.37-2.63,8.94,0,12.69,2.84,12.69,11.77v23.82c-1.3.35-3.21.62-4.82.62M49.13,216.62c2.06,1.11,3.67,2.84,3.67,4.43s-1.22,3.05-4.2,4.71c-1.07.69-6.5,3.39-8.25,4.01l-3.75-3.11,12.54-10.04ZM41.64,260.86c1.91,0,3.59-.69,5.04-1.87v-6.99c-1.91.14-5.66.49-7.49,1.04-.53,1.04-.76,2.42-.76,3.74,0,2.56,1.07,4.09,3.21,4.09"/>
    <path class="cls-1" d="M74.58,235.45c.84-.76,4.59-3.39,9.25-3.39,6.73,0,11.39,4.09,11.39,18,0,11.42-5.35,18.21-12.99,18.21-4.2,0-7.41-2.35-8.33-3.53-1.45,2.91-2.98,3.53-6.19,3.53-1.07,0-2.68-.14-3.44-.35v-46.66c.92-.28,3.06-.83,5.27-.83,4.28,0,5.04.97,5.04,5.12v9.9ZM79.47,239.74c-2.06,0-4.51,1.45-4.82,1.59v17.72c.23.21,2.45,1.8,4.66,1.8,1.76,0,3.13-.55,3.29-.62.69-1.25,1.6-5.54,1.6-9.76,0-8.17-1.3-10.73-4.74-10.73"/>
    <path class="cls-1" d="M100.94,232.96c.84-.49,3.36-.9,5.12-.9,3.13,0,3.75,1.52,4.43,5.75,1.83-3.25,5.43-5.75,10.09-5.75.38,1.66.54,3.95.46,5.81-.08,2.42-.46,3.6-2.22,3.6-3.29,0-5.73,1.11-7.41,2.63v23.47h-10.47v-34.61Z"/>
    <path class="cls-1" d="M130.83,219.74c3.36,0,4.74,1.52,4.74,4.64,0,2.77-1.91,4.57-6.88,4.57-3.59,0-4.74-2.01-4.74-4.71s1.76-4.5,6.88-4.5M124.4,267.57v-33.99c1.38-.55,3.59-.9,5.58-.9,4.05,0,4.89,1.04,4.89,4.71v30.18h-10.47Z"/>
    <path class="cls-1" d="M156.04,232.06c5.2,0,8.33,1.66,8.94,2.08,0,4.57-1.15,6.99-3.13,6.99-1.3,0-3.06-1.18-5.66-1.18-.99,0-1.91.21-2.83.55-.38.62-1.91,4.22-1.91,9.76,0,7.13,2.6,10.31,6.65,10.31,2.22,0,4.36-.62,5.81-1.32l1.15,6.23c-1.91,1.25-4.89,2.77-9.78,2.77-9.32,0-14.67-6.3-14.67-17.86s5.27-18.35,15.44-18.35"/>
    <path class="cls-1" d="M190.51,268.26c-2.98,0-4.28-.9-4.74-4.02-1.99,2.22-5.04,4.02-9.55,4.02-5.66,0-9.1-4.02-9.1-10.04,0-8.24,5.27-10.94,17.81-11.63,0-5.47-.38-6.85-4.51-6.85-2.9,0-6.34,1.18-8.48,1.18-2.45,0-3.59-1.66-3.67-6.23,3.29-1.38,8.71-2.63,14.37-2.63,8.94,0,12.69,2.84,12.69,11.77v23.82c-1.3.35-3.21.62-4.82.62M179.89,260.86c1.91,0,3.59-.69,5.04-1.87v-6.99c-1.91.14-5.66.49-7.49,1.04-.53,1.04-.76,2.42-.76,3.74,0,2.56,1.07,4.09,3.21,4.09"/>
    <path class="cls-1" d="M228.65,232.06c3.59,0,6.04,1.25,7.34,2.22v-13.08c1.3-.42,3.52-.76,5.58-.76,4.05,0,4.81.76,4.81,5.12v42.3c-1.3.28-3.06.48-4.97.42-2.75-.07-4.28-.83-4.97-3.88-1.07,1.18-4.13,3.88-9.1,3.88-7.72,0-11.54-7.2-11.54-18.07s4.2-18.14,12.84-18.14M231.4,260.65c1.91,0,3.67-.9,4.59-1.73v-17.79c-1.76-1.25-4.97-2.08-7.79-1.25-.84,1.8-1.45,5.75-1.45,10.39,0,7.96,1.91,10.38,4.66,10.38"/>
    <path class="cls-1" d="M267.93,232.06c9.4,0,12.99,5.33,12.99,15.99,0,1.59,0,3.39-.23,5.33h-17.5c.23,4.71,2.22,7.41,6.42,7.41s6.34-1.18,7.8-1.18c1.83,0,2.6,1.52,2.52,6.23-2.52,1.32-6.57,2.42-12.46,2.42-11.23,0-15.21-7.82-15.21-18.21s4.89-18,15.67-18M267.55,239.33c-1.68,0-2.98.83-3.21.9-.23.76-1.22,3.53-1.22,7.48l8.33-.48c.23-4.92-.92-7.89-3.9-7.89"/>
    <path class="cls-1" d="M24.43,288.39c6.65,0,10.93,1.72,12.17,2.58-.19,7.4-2.38,9.55-4.47,9.55-2.47,0-3.71-1.29-8.93-1.29-2.09,0-4.66.6-6.08,1.29-2.19,3.79-2.95,9.9-2.95,15.67,0,13,4.56,16.96,11.12,16.96,3.23,0,6.46-.77,9.03-2.33l2.28,9.47c-3.61,2.5-8.27,3.88-14.26,3.88-14.73,0-22.33-8.52-22.33-28.5s9.98-27.29,24.43-27.29"/>
    <path class="cls-1" d="M68.62,344.17c-3.71,0-5.32-1.12-5.89-4.99-2.47,2.75-6.27,4.99-11.88,4.99-7.03,0-11.31-4.99-11.31-12.48,0-10.24,6.56-13.6,22.15-14.46,0-6.8-.47-8.52-5.61-8.52-3.61,0-7.89,1.46-10.55,1.46-3.04,0-4.47-2.07-4.56-7.75,4.09-1.72,10.84-3.27,17.87-3.27,11.12,0,15.78,3.53,15.78,14.64v29.61c-1.62.43-3.99.77-5.99.77M64.72,279.95c2.57,1.38,4.56,3.53,4.56,5.51s-1.52,3.79-5.23,5.85c-1.33.86-8.08,4.22-10.26,4.99l-4.66-3.87,15.59-12.48ZM55.41,334.96c2.38,0,4.47-.86,6.27-2.32v-8.7c-2.38.17-7.03.6-9.31,1.29-.67,1.29-.95,3.01-.95,4.65,0,3.19,1.33,5.08,3.99,5.08"/>
    <path class="cls-1" d="M83.35,333.33v-47.43c1.71-.6,4.56-1.2,6.84-1.2,5.13,0,6.18,1.29,6.18,6.37v40.55c0,2.41,1.33,3.53,3.42,3.53,1.42,0,2.95-.43,3.61-.6l.19,7.75c-2.18,1.12-5.42,1.9-9.22,1.9-6.75,0-11.03-3.27-11.03-10.85"/>
    <path class="cls-1" d="M125.36,299.15c6.46,0,10.36,2.07,11.12,2.58,0,5.68-1.43,8.69-3.9,8.69-1.62,0-3.8-1.46-7.03-1.46-1.24,0-2.38.26-3.52.69-.47.77-2.38,5.25-2.38,12.14,0,8.87,3.23,12.83,8.27,12.83,2.76,0,5.42-.77,7.22-1.63l1.43,7.75c-2.38,1.55-6.08,3.44-12.17,3.44-11.6,0-18.25-7.83-18.25-22.21s6.56-22.81,19.2-22.81"/>
    <path class="cls-1" d="M178.29,342.71c-1.33.6-3.99,1.46-6.94,1.46-3.42,0-4.56-.77-5.7-4.91-1.24,1.29-6.08,4.91-12.26,4.91-8.27,0-11.78-4.56-11.78-13.17v-30.73c1.24-.17,4.09-.6,6.18-.6,5.13,0,6.84.69,6.84,5.85v23.33c0,3.79,1.05,5.17,3.9,5.17,3.42,0,6.46-2.41,6.84-2.76v-31.33h12.93v42.78Z"/>
    <path class="cls-1" d="M187.41,333.33v-47.43c1.71-.6,4.56-1.2,6.84-1.2,5.13,0,6.18,1.29,6.18,6.37v40.55c0,2.41,1.33,3.53,3.42,3.53,1.42,0,2.95-.43,3.61-.6l.19,7.75c-2.18,1.12-5.42,1.9-9.22,1.9-6.75,0-11.03-3.27-11.03-10.85"/>
    <path class="cls-1" d="M248.72,321.88c0,13.6-5.99,22.3-20.91,22.3-11.41,0-17.58-9.3-17.58-22.9,0-9.21,2.47-22.12,20.72-22.12,12.74,0,17.77,8.52,17.77,22.73M229.52,335.14c1.62,0,3.04-.35,4.28-1.12.19-.6,2-5.08,2-12.4,0-9.73-1.71-13.26-6.08-13.26-1.62,0-3.04.34-4.47.95-.66,1.38-2.09,5.17-2.09,12.31,0,9.81,2.19,13.52,6.37,13.52"/>
    <path class="cls-1" d="M272,299.15c4.18,0,8.08.78,10.93,1.81.09.77.09,1.55.09,2.32-.09,3.96-1.52,6.46-3.99,6.46-1.71,0-4.09-1.21-8.08-1.21-2,0-3.61.34-4.66.69-.38.6-.57,1.55-.57,2.33,0,2.24,1.81,3.1,8.08,5.25,7.6,2.15,10.64,5.77,10.64,12.57,0,9.3-7.13,14.81-17.87,14.81-5.23,0-9.51-1.12-12.36-2.58-.19-.86-.28-1.89-.28-2.93.28-2.84,1.33-5.6,3.33-5.6s3.99,1.72,9.69,1.72c2.47,0,4.09-.35,5.13-.95.38-.43.66-1.55.66-2.58,0-2.41-2.57-3.1-7.41-4.82-7.89-2.84-11.22-7.06-11.22-13,0-8.35,6.08-14.29,17.87-14.29"/>
  </g>
  <path class="cls-1" d="M188.89,1.94c-12.84,0-23.62,8.69-26.4,20.3-3.8-2.38-8.32-3.77-13.17-3.77-1.77,0-3.49.19-5.15.54C144.04,8.51,135.19,0,124.3,0,117.06,0,110.74,3.77,107.26,9.38c-3.27-2.08-7.17-3.3-11.36-3.3-11.43,0-20.74,8.99-20.74,20.05s9.3,20.05,20.74,20.05c7.85,0,14.7-4.24,18.22-10.48,2.98,1.73,6.46,2.74,10.18,2.74.34,0,.67-.03,1-.05-.19,1.18-.31,2.37-.31,3.6,0,12.97,10.91,23.53,24.33,23.53,10.88,0,20.11-6.94,23.22-16.49,4.55,3.34,10.21,5.33,16.35,5.33,14.95,0,27.11-11.76,27.11-26.21S203.84,1.94,188.89,1.94ZM188.89,47.3c-6.59,0-12.41-3.12-16.01-7.91-1.41-2.05-6.52-2.16-6.58,1.69.02.3.05.6.05.91,0,9.1-7.63,16.47-17.03,16.47s-17.03-7.37-17.03-16.47c0-2.32.5-4.52,1.39-6.52.67-3.64-.98-5.69-4.52-5.03-1.5.61-3.14.94-4.86.94-4.02,0-7.59-1.83-9.89-4.67-1.34-2.07-5.19-.77-5.26,1.5-1.03,6.18-6.56,10.9-13.25,10.9-7.42,0-13.43-5.82-13.43-12.99s6.01-12.99,13.43-12.99c4.2,0,7.95,1.86,10.41,4.78,1.63,2.47,5.58.91,5.67-1.15,1.17-5.54,6.24-9.71,12.32-9.71,6.95,0,12.58,5.45,12.58,12.16,0,1.66-.34,3.23-.97,4.67-.62,4.2,1.88,4.7,4.68,3.97,2.55-1.48,5.53-2.34,8.72-2.34,5.75,0,10.82,2.76,13.9,6.98,2.29,2.92,6.89,1.13,5.94-2.82-.04-.51-.08-1.01-.08-1.53,0-10.58,8.87-19.15,19.81-19.15s19.81,8.57,19.81,19.15-8.87,19.15-19.81,19.15ZM102.15,24.81h-4.38v-3.97c0-.76-.19-1.32-.56-1.68-.37-.36-.86-.55-1.45-.55s-1.09.18-1.46.55c-.37.37-.56.93-.56,1.68v3.97h-4.38c-.83,0-1.44.17-1.85.51-.41.34-.61.78-.61,1.33s.21.97.63,1.31c.42.34,1.03.51,1.83.51h4.38v3.97c0,.75.19,1.31.56,1.68.37.37.86.55,1.46.55s1.07-.19,1.45-.57c.37-.38.56-.93.56-1.66v-3.97h4.38c.84,0,1.46-.17,1.86-.51.4-.34.6-.78.6-1.31s-.2-.99-.61-1.33c-.41-.34-1.02-.51-1.85-.51ZM143.41,40.04c1.01.01,1.86-.3,2.55-.93.64-.58.96-1.35.97-2.33.01-.98-.3-1.75-.94-2.33-.79-.72-1.67-1.06-2.61-1.01-.95.05-1.77.38-2.46,1.01-.71.65-1.1,1.4-1.17,2.26-.06.86.31,1.65,1.12,2.38.68.62,1.53.93,2.54.94ZM154.33,43.38c-1,.01-1.86.34-2.57.99-.71.65-1.07,1.42-1.06,2.31.01.89.36,1.66,1.06,2.28.82.74,1.71,1.08,2.67,1.03.96-.05,1.8-.4,2.5-1.03.68-.62,1.04-1.36,1.09-2.24.05-.87-.34-1.68-1.14-2.41-.7-.64-1.56-.95-2.56-.94ZM154.58,33.36l-14.21,12.87c-.92.83-.87,2.23.11,3.11.98.88,2.52.93,3.44.1l14.21-12.87c.92-.83.87-2.23-.11-3.12-.97-.88-2.52-.93-3.44-.1ZM131.46,18.05h-4.04l2.02-3.17c.47-.74.19-1.69-.62-2.11-.81-.43-1.86-.17-2.34.57l-2.02,3.17-2.02-3.17c-.47-.74-1.52-.99-2.34-.57-.81.43-1.1,1.38-.63,2.11l2.02,3.17h-4.04c-.94,0-1.71.7-1.71,1.55s.77,1.55,1.71,1.55h4.04l-2.02,3.17c-.47.74-.19,1.69.63,2.11.81.43,1.86.17,2.34-.57l2.02-3.17,2.02,3.17c.47.74,1.52.99,2.34.57.81-.43,1.1-1.38.62-2.11l-2.02-3.17h4.04c.94,0,1.71-.7,1.71-1.55s-.77-1.55-1.71-1.55ZM198.93,20.61h-19.31c-1.14,0-2.08.94-2.08,2.08v1.24c0,1.14.93,2.08,2.08,2.08h19.31c1.14,0,2.08-.94,2.08-2.08v-1.24c0-1.14-.94-2.08-2.08-2.08ZM198.93,30.06h-19.31c-1.14,0-2.08.94-2.08,2.08v1.24c0,1.14.93,2.08,2.08,2.08h19.31c1.14,0,2.08-.94,2.08-2.08v-1.24c0-1.14-.94-2.08-2.08-2.08Z"/>
  <path class="cls-1" d="M194.86,130.91h-19.13c-1.76,0-3.18,1.29-3.18,2.88v34.27c0,1.59,1.42,2.88,3.18,2.88h19.13c1.76,0,3.18-1.29,3.18-2.88v-34.27c0-1.59-1.42-2.88-3.18-2.88ZM191.68,165.17h-12.78v-28.51h12.78v28.51ZM161.23,130.91h-19.13c-1.76,0-3.18,1.29-3.18,2.88v34.27c0,1.59,1.42,2.88,3.18,2.88h19.13c1.76,0,3.18-1.29,3.18-2.88v-34.27c0-1.59-1.42-2.88-3.18-2.88ZM158.05,165.17h-12.78v-28.51h12.78v28.51ZM218.11,115.01l-4.05-22.68c-.4-2.22-2.09-4.08-4.42-4.86-.77-.26-1.58-.38-2.37-.38-1.61,0-3.2.51-4.47,1.49l-19.08,14.74-1.96-10.99c-.4-2.22-2.09-4.08-4.42-4.86-.77-.26-1.58-.38-2.37-.38-1.61,0-3.2.51-4.47,1.49l-16.29,12.58-1.58-8.83c-.4-2.22-2.09-4.08-4.42-4.86-.77-.26-1.58-.38-2.38-.38-1.61,0-3.2.51-4.47,1.49l-23.47,18.13-2.99-32.97h.67c1.76,0,3.18-1.29,3.18-2.88v-17.31c0-1.59-1.42-2.88-3.18-2.88h-43.14c-1.76,0-3.18,1.29-3.18,2.88v17.31c0,1.59,1.42,2.88,3.18,2.88h.68l-8.29,91.44h-1.27c-1.76,0-3.18,1.29-3.18,2.88v23.45c0,1.59,1.42,2.88,3.18,2.88h60.91c.37,0,.72-.07,1.05-.17h85.81c3.8,0,6.89-2.79,6.89-6.24v-71.97c0-.33-.03-.67-.09-1ZM75.6,56.43h36.78v11.55h-36.78v-11.55ZM79.48,73.74h29.04l8.29,91.43h-45.62l8.29-91.43ZM121.27,188.62h-54.56v-17.69h1.01s0,0,0,0h52.52s0,0,0,0h1.02v17.69ZM211.31,187.97h-83.69v-19.92c0-1.59-1.42-2.88-3.18-2.88h-1.27l-4.61-50.81,27.25-21.04,3.53,19.77,25.6-19.77,3.92,21.92,28.39-21.92,4.05,22.68v71.97Z"/>
</svg>